<?xml version="1.0" standalone="no"?>
<!DOCTYPE svg PUBLIC "-//W3C//DTD SVG 20010904//EN"
 "http://www.w3.org/TR/2001/REC-SVG-20010904/DTD/svg10.dtd">
<svg version="1.0" xmlns="http://www.w3.org/2000/svg"
 width="918.000000pt" height="928.000000pt" viewBox="0 0 918.000000 928.000000"
 preserveAspectRatio="xMidYMid meet">

<g transform="translate(0.000000,928.000000) scale(0.100000,-0.100000)"
fill="#000000" stroke="none">
<path d="M4991 7494 c-106 -7 -196 -15 -199 -19 -3 -3 26 -6 64 -7 l69 -1 -55
-7 -55 -7 80 -3 80 -3 -60 -7 c-74 -8 -63 -12 35 -13 l75 0 -67 -4 c-38 -2
-68 -8 -68 -13 0 -6 9 -10 21 -10 11 0 17 -4 14 -10 -4 -6 9 -10 32 -11 34 -1
35 -2 13 -9 -20 -7 -16 -8 25 -10 48 -3 49 -3 15 -10 -30 -6 -27 -8 30 -10
l65 -3 -50 -7 c-48 -7 -47 -7 30 -10 l80 -3 -63 -6 c-61 -6 -62 -6 -42 -23 11
-10 30 -18 43 -18 18 0 19 -2 7 -10 -11 -7 -3 -10 30 -11 41 -1 43 -2 15 -9
l-30 -8 31 -1 c52 -2 477 29 483 35 3 3 -61 4 -144 1 -174 -7 -174 -2 0 10
l120 8 -85 6 -85 5 68 2 c37 1 67 7 67 12 0 6 -9 10 -21 10 -11 0 -17 5 -14
10 4 6 -8 10 -27 11 -27 0 -30 2 -13 9 15 7 8 9 -30 11 -48 2 -49 2 -15 9 31
7 29 8 -25 10 l-60 3 45 7 c42 7 40 7 -30 10 l-75 3 60 7 60 7 -85 3 -85 4 70
6 c52 5 64 9 48 14 -13 5 -20 12 -17 17 3 5 -7 9 -23 9 -22 0 -25 2 -13 10 11
7 3 10 -30 11 -41 1 -43 2 -15 9 46 12 -69 9 -294 -6z m217 -11 c-21 -2 -55
-2 -75 0 -21 2 -4 4 37 4 41 0 58 -2 38 -4z m-160 -10 c-21 -2 -55 -2 -75 0
-21 2 -4 4 37 4 41 0 58 -2 38 -4z m209 -10 c-20 -2 -52 -2 -70 0 -17 2 0 4
38 4 39 0 53 -2 32 -4z m-160 -10 c-20 -2 -52 -2 -70 0 -17 2 0 4 38 4 39 0
53 -2 32 -4z m221 -10 c-21 -2 -55 -2 -75 0 -21 2 -4 4 37 4 41 0 58 -2 38 -4z
m-160 -10 c-21 -2 -55 -2 -75 0 -21 2 -4 4 37 4 41 0 58 -2 38 -4z m60 -20
c-21 -2 -55 -2 -75 0 -21 2 -4 4 37 4 41 0 58 -2 38 -4z m-160 -10 c-21 -2
-55 -2 -75 0 -21 2 -4 4 37 4 41 0 58 -2 38 -4z m210 -10 c-21 -2 -55 -2 -75
0 -21 2 -4 4 37 4 41 0 58 -2 38 -4z m-150 -10 c-21 -2 -55 -2 -75 0 -21 2 -4
4 37 4 41 0 58 -2 38 -4z m210 -10 c-21 -2 -55 -2 -75 0 -21 2 -4 4 37 4 41 0
58 -2 38 -4z m-160 -10 c-21 -2 -55 -2 -75 0 -21 2 -4 4 37 4 41 0 58 -2 38
-4z m220 -10 c-21 -2 -55 -2 -75 0 -21 2 -4 4 37 4 41 0 58 -2 38 -4z m-160
-10 c-21 -2 -55 -2 -75 0 -21 2 -4 4 37 4 41 0 58 -2 38 -4z m220 -10 c-21 -2
-57 -2 -80 0 -24 2 -7 4 37 4 44 0 63 -2 43 -4z m-160 -10 c-21 -2 -55 -2 -75
0 -21 2 -4 4 37 4 41 0 58 -2 38 -4z m210 -10 c-21 -2 -55 -2 -75 0 -21 2 -4
4 37 4 41 0 58 -2 38 -4z m-150 -10 c-21 -2 -57 -2 -80 0 -24 2 -7 4 37 4 44
0 63 -2 43 -4z m-160 -10 c-21 -2 -55 -2 -75 0 -21 2 -4 4 37 4 41 0 58 -2 38
-4z m210 -10 c-21 -2 -55 -2 -75 0 -21 2 -4 4 37 4 41 0 58 -2 38 -4z m-150
-10 c-21 -2 -55 -2 -75 0 -21 2 -4 4 37 4 41 0 58 -2 38 -4z m60 -20 c-21 -2
-57 -2 -80 0 -24 2 -7 4 37 4 44 0 63 -2 43 -4z"/>
<path d="M4303 7452 c-134 -9 -243 -19 -243 -24 0 -4 15 -8 33 -9 30 -1 31 -1
7 -9 -20 -7 -16 -8 25 -10 48 -3 49 -3 15 -10 -30 -6 -27 -8 30 -10 l65 -3
-50 -7 c-48 -7 -47 -7 30 -10 l80 -3 -65 -7 c-81 -8 -69 -13 35 -13 80 0 80 0
13 -4 -66 -4 -97 -22 -40 -24 24 0 25 -1 7 -9 -15 -7 -8 -9 30 -11 48 -2 49
-2 15 -9 -30 -6 -27 -8 30 -10 l65 -3 -50 -7 c-48 -7 -47 -7 30 -10 l80 -3
-65 -7 c-77 -8 -64 -12 40 -13 l75 0 -67 -4 c-38 -2 -68 -8 -68 -13 0 -6 12
-10 28 -10 21 0 24 -2 12 -10 -20 -13 -21 -13 235 5 116 8 225 15 244 15 19 0
31 3 27 7 -3 4 -44 7 -89 7 -75 -1 -76 0 -14 3 37 2 67 8 67 13 0 6 -9 10 -21
10 -11 0 -17 5 -14 10 4 6 -11 11 -37 11 l-43 2 35 7 c30 6 27 8 -30 10 l-65
3 50 7 c48 7 47 7 -30 10 l-80 3 60 7 c72 8 64 11 -30 12 l-70 1 63 4 c34 2
62 8 62 13 0 6 -7 10 -15 10 -8 0 -15 5 -15 10 0 6 -15 10 -32 11 -28 0 -30 2
-13 9 15 7 8 9 -30 11 -48 2 -49 2 -15 9 31 7 29 8 -25 10 l-60 3 45 7 c42 7
40 7 -30 10 -74 4 -74 4 -17 7 33 2 55 8 52 14 -4 5 -9 8 -13 7 -4 0 -116 -8
-249 -16z m105 -19 c-21 -2 -55 -2 -75 0 -21 2 -4 4 37 4 41 0 58 -2 38 -4z
m-160 -10 c-21 -2 -55 -2 -75 0 -21 2 -4 4 37 4 41 0 58 -2 38 -4z m210 -10
c-21 -2 -55 -2 -75 0 -21 2 -4 4 37 4 41 0 58 -2 38 -4z m-160 -10 c-21 -2
-55 -2 -75 0 -21 2 -4 4 37 4 41 0 58 -2 38 -4z m220 -10 c-21 -2 -55 -2 -75
0 -21 2 -4 4 37 4 41 0 58 -2 38 -4z m-160 -10 c-21 -2 -55 -2 -75 0 -21 2 -4
4 37 4 41 0 58 -2 38 -4z m220 -10 c-21 -2 -55 -2 -75 0 -21 2 -4 4 37 4 41 0
58 -2 38 -4z m-160 -10 c-21 -2 -55 -2 -75 0 -21 2 -4 4 37 4 41 0 58 -2 38
-4z m220 -10 c-21 -2 -55 -2 -75 0 -21 2 -4 4 37 4 41 0 58 -2 38 -4z m-160
-10 c-21 -2 -55 -2 -75 0 -21 2 -4 4 37 4 41 0 58 -2 38 -4z m60 -20 c-21 -2
-55 -2 -75 0 -21 2 -4 4 37 4 41 0 58 -2 38 -4z m-160 -10 c-21 -2 -55 -2 -75
0 -21 2 -4 4 37 4 41 0 58 -2 38 -4z m220 -10 c-21 -2 -55 -2 -75 0 -21 2 -4
4 37 4 41 0 58 -2 38 -4z m-160 -10 c-21 -2 -55 -2 -75 0 -21 2 -4 4 37 4 41
0 58 -2 38 -4z m220 -10 c-21 -2 -55 -2 -75 0 -21 2 -4 4 37 4 41 0 58 -2 38
-4z m-150 -10 c-21 -2 -57 -2 -80 0 -24 2 -7 4 37 4 44 0 63 -2 43 -4z m210
-10 c-21 -2 -55 -2 -75 0 -21 2 -4 4 37 4 41 0 58 -2 38 -4z m-150 -10 c-21
-2 -57 -2 -80 0 -24 2 -7 4 37 4 44 0 63 -2 43 -4z m210 -10 c-21 -2 -55 -2
-75 0 -21 2 -4 4 37 4 41 0 58 -2 38 -4z m-150 -10 c-21 -2 -57 -2 -80 0 -24
2 -7 4 37 4 44 0 63 -2 43 -4z m60 -20 c-21 -2 -57 -2 -80 0 -24 2 -7 4 37 4
44 0 63 -2 43 -4z m-160 -10 c-21 -2 -55 -2 -75 0 -21 2 -4 4 37 4 41 0 58 -2
38 -4z"/>
<path d="M3555 7404 c-99 -7 -197 -13 -219 -13 l-39 -1 26 -20 c14 -11 30 -20
37 -20 6 0 8 -4 5 -10 -4 -6 11 -10 37 -11 40 -1 41 -2 13 -9 -25 -6 -20 -8
30 -10 l60 -3 -45 -7 c-42 -7 -40 -7 30 -10 75 -4 75 -4 17 -7 l-58 -4 24 -20
c14 -10 33 -19 44 -19 15 0 16 -2 3 -10 -11 -7 -1 -10 35 -11 48 -2 48 -2 15
-9 -30 -6 -27 -8 30 -10 l65 -3 -50 -7 c-48 -7 -47 -7 30 -10 l80 -3 -65 -7
c-82 -8 -69 -12 40 -13 83 0 83 0 15 -4 -38 -2 -74 -9 -80 -15 -7 -7 8 -9 50
-5 33 4 153 12 267 18 114 7 205 16 202 21 -3 4 -15 8 -27 8 -18 0 -19 2 -7
10 11 7 1 10 -35 11 -48 2 -48 2 -15 9 30 6 27 8 -30 10 l-65 3 50 7 c48 7 47
7 -30 10 l-80 3 63 6 c61 6 62 6 42 24 -11 9 -30 17 -43 17 -18 0 -19 2 -7 10
11 7 1 10 -35 11 -48 2 -48 2 -15 9 30 6 27 8 -30 10 l-65 3 50 7 c48 7 47 7
-30 10 l-80 3 65 7 c79 8 70 12 -30 13 l-75 0 68 4 c39 2 65 8 62 13 -4 6 -16
10 -28 10 -18 0 -19 2 -7 10 19 12 -27 11 -265 -6z m203 -11 c-21 -2 -55 -2
-75 0 -21 2 -4 4 37 4 41 0 58 -2 38 -4z m-150 -10 c-21 -2 -57 -2 -80 0 -24
2 -7 4 37 4 44 0 63 -2 43 -4z m-170 -10 c-21 -2 -55 -2 -75 0 -21 2 -4 4 37
4 41 0 58 -2 38 -4z m220 -10 c-21 -2 -55 -2 -75 0 -21 2 -4 4 37 4 41 0 58
-2 38 -4z m-160 -10 c-21 -2 -55 -2 -75 0 -21 2 -4 4 37 4 41 0 58 -2 38 -4z
m230 -10 c-21 -2 -57 -2 -80 0 -24 2 -7 4 37 4 44 0 63 -2 43 -4z m-160 -10
c-21 -2 -57 -2 -80 0 -24 2 -7 4 37 4 44 0 63 -2 43 -4z m220 -10 c-21 -2 -55
-2 -75 0 -21 2 -4 4 37 4 41 0 58 -2 38 -4z m-160 -10 c-21 -2 -55 -2 -75 0
-21 2 -4 4 37 4 41 0 58 -2 38 -4z m220 -10 c-21 -2 -55 -2 -75 0 -21 2 -4 4
37 4 41 0 58 -2 38 -4z m-160 -10 c-21 -2 -55 -2 -75 0 -21 2 -4 4 37 4 41 0
58 -2 38 -4z m220 -10 c-21 -2 -55 -2 -75 0 -21 2 -4 4 37 4 41 0 58 -2 38 -4z
m-160 -10 c-21 -2 -55 -2 -75 0 -21 2 -4 4 37 4 41 0 58 -2 38 -4z m-160 -10
c-21 -2 -55 -2 -75 0 -21 2 -4 4 37 4 41 0 58 -2 38 -4z m380 0 c-21 -2 -55
-2 -75 0 -21 2 -4 4 37 4 41 0 58 -2 38 -4z m-150 -10 c-21 -2 -57 -2 -80 0
-24 2 -7 4 37 4 44 0 63 -2 43 -4z m-160 -10 c-21 -2 -57 -2 -80 0 -24 2 -7 4
37 4 44 0 63 -2 43 -4z m220 -10 c-21 -2 -57 -2 -80 0 -24 2 -7 4 37 4 44 0
63 -2 43 -4z m-160 -10 c-21 -2 -55 -2 -75 0 -21 2 -4 4 37 4 41 0 58 -2 38
-4z m167 -14 c-49 -4 -119 -7 -155 -6 l-65 1 80 6 c44 3 114 6 155 7 l75 0
-90 -8z m113 -16 c-21 -2 -55 -2 -75 0 -21 2 -4 4 37 4 41 0 58 -2 38 -4z
m-150 -10 c-21 -2 -57 -2 -80 0 -24 2 -7 4 37 4 44 0 63 -2 43 -4z m220 -10
c-21 -2 -57 -2 -80 0 -24 2 -7 4 37 4 44 0 63 -2 43 -4z m-160 -10 c-21 -2
-55 -2 -75 0 -21 2 -4 4 37 4 41 0 58 -2 38 -4z"/>
<path d="M2741 7354 c-106 -7 -196 -15 -199 -19 -3 -3 26 -6 64 -7 l69 -1 -55
-7 c-53 -6 -51 -7 35 -10 l90 -4 -75 -6 c-54 -5 -69 -9 -53 -14 13 -5 20 -12
17 -17 -3 -5 12 -9 33 -10 34 -1 35 -2 13 -9 -19 -6 -11 -9 35 -11 l60 -2 -45
-7 c-41 -6 -37 -7 35 -10 l80 -3 -63 -6 c-61 -6 -62 -6 -42 -23 11 -10 33 -18
48 -19 24 0 25 -1 7 -9 -15 -6 -6 -9 35 -11 l55 -2 -40 -8 c-23 -4 22 -6 110
-4 173 5 173 0 0 -12 l-120 -8 90 -6 90 -5 -72 -2 c-46 -1 -73 -6 -73 -13 0
-8 17 -9 53 -6 28 4 144 12 257 18 113 6 209 16 214 20 6 5 -7 9 -30 10 -35 1
-36 2 -14 9 15 5 -29 7 -110 5 -137 -3 -133 -1 20 12 l85 8 -75 6 -75 5 59 2
c87 3 59 16 -32 16 l-77 -1 68 4 c37 2 67 8 67 13 0 6 -12 10 -27 10 -22 0
-25 2 -13 10 11 7 3 10 -30 11 -41 1 -43 2 -15 9 24 6 18 8 -35 10 l-65 3 50
7 c48 7 47 7 -30 10 l-80 4 63 3 c34 2 62 8 62 13 0 6 -7 10 -15 10 -8 0 -15
5 -15 10 0 6 -15 10 -32 11 -28 0 -30 2 -13 9 15 7 8 9 -30 11 -48 2 -49 2
-15 9 56 12 -77 9 -299 -6z m217 -11 c-21 -2 -55 -2 -75 0 -21 2 -4 4 37 4 41
0 58 -2 38 -4z m-160 -10 c-21 -2 -55 -2 -75 0 -21 2 -4 4 37 4 41 0 58 -2 38
-4z m220 -10 c-21 -2 -55 -2 -75 0 -21 2 -4 4 37 4 41 0 58 -2 38 -4z m-160
-10 c-21 -2 -55 -2 -75 0 -21 2 -4 4 37 4 41 0 58 -2 38 -4z m230 -10 c-21 -2
-57 -2 -80 0 -24 2 -7 4 37 4 44 0 63 -2 43 -4z m-160 -10 c-21 -2 -57 -2 -80
0 -24 2 -7 4 37 4 44 0 63 -2 43 -4z m-160 -10 c-21 -2 -55 -2 -75 0 -21 2 -4
4 37 4 41 0 58 -2 38 -4z m220 -10 c-21 -2 -55 -2 -75 0 -21 2 -4 4 37 4 41 0
58 -2 38 -4z m-160 -10 c-21 -2 -55 -2 -75 0 -21 2 -4 4 37 4 41 0 58 -2 38
-4z m230 -10 c-21 -2 -57 -2 -80 0 -24 2 -7 4 37 4 44 0 63 -2 43 -4z m-160
-10 c-21 -2 -57 -2 -80 0 -24 2 -7 4 37 4 44 0 63 -2 43 -4z m220 -10 c-21 -2
-55 -2 -75 0 -21 2 -4 4 37 4 41 0 58 -2 38 -4z m-150 -10 c-21 -2 -57 -2 -80
0 -24 2 -7 4 37 4 44 0 63 -2 43 -4z m220 -10 c-21 -2 -57 -2 -80 0 -24 2 -7
4 37 4 44 0 63 -2 43 -4z m-160 -10 c-21 -2 -57 -2 -80 0 -24 2 -7 4 37 4 44
0 63 -2 43 -4z m-160 -10 c-21 -2 -55 -2 -75 0 -21 2 -4 4 37 4 41 0 58 -2 38
-4z m220 -10 c-21 -2 -55 -2 -75 0 -21 2 -4 4 37 4 41 0 58 -2 38 -4z m-150
-10 c-21 -2 -57 -2 -80 0 -24 2 -7 4 37 4 44 0 63 -2 43 -4z m220 -10 c-21 -2
-57 -2 -80 0 -24 2 -7 4 37 4 44 0 63 -2 43 -4z m-160 -10 c-21 -2 -55 -2 -75
0 -21 2 -4 4 37 4 41 0 58 -2 38 -4z m237 -34 c-49 -4 -119 -7 -155 -6 l-65 1
80 6 c44 3 114 6 155 7 l75 0 -90 -8z"/>
<path d="M2033 7310 c-240 -15 -330 -28 -212 -31 54 -2 54 -2 14 -9 -35 -6
-31 -8 35 -10 l75 -3 -60 -7 c-74 -8 -63 -12 35 -13 l75 0 -67 -4 c-38 -2 -68
-8 -68 -13 0 -6 12 -10 28 -10 21 0 24 -2 12 -10 -11 -7 -1 -10 35 -11 48 -2
48 -2 15 -9 -30 -6 -24 -8 35 -10 l70 -3 -60 -8 c-58 -7 41 -6 325 5 63 3 13
-2 -112 -11 -126 -9 -228 -20 -228 -24 0 -5 12 -9 28 -10 24 0 25 -1 7 -10
-14 -6 6 -8 60 -4 44 2 139 7 210 9 115 4 108 3 -53 -9 -206 -15 -241 -22
-132 -26 l75 -3 -60 -3 c-33 -2 -54 -7 -48 -11 7 -4 63 -4 125 0 62 5 133 7
158 6 25 -2 -21 -7 -102 -12 -89 -5 -148 -12 -148 -18 0 -7 18 -8 48 -5 26 3
142 11 257 18 225 12 313 32 110 25 l-120 -5 98 9 c113 9 137 19 51 22 l-59 1
50 7 c47 6 44 7 -35 10 -81 4 -82 4 -22 7 34 2 62 8 62 13 0 6 -7 10 -15 10
-8 0 -15 5 -15 10 0 6 -17 11 -37 11 -38 1 -38 1 -8 9 25 6 20 8 -30 10 l-60
3 45 7 c41 6 37 7 -35 10 l-80 3 65 7 c82 8 69 12 -40 13 -83 0 -83 0 -15 4
74 4 116 22 55 24 -29 0 -31 2 -15 9 15 6 6 9 -35 11 -55 2 -55 2 -15 9 36 6
33 7 -30 10 l-70 3 55 6 c30 3 48 8 40 11 -8 3 -128 -1 -267 -10z m125 -17
c-21 -2 -57 -2 -80 0 -24 2 -7 4 37 4 44 0 63 -2 43 -4z m-160 -10 c-21 -2
-57 -2 -80 0 -24 2 -7 4 37 4 44 0 63 -2 43 -4z m220 -10 c-21 -2 -55 -2 -75
0 -21 2 -4 4 37 4 41 0 58 -2 38 -4z m-160 -10 c-21 -2 -55 -2 -75 0 -21 2 -4
4 37 4 41 0 58 -2 38 -4z m230 -10 c-21 -2 -55 -2 -75 0 -21 2 -4 4 37 4 41 0
58 -2 38 -4z m-160 -10 c-21 -2 -55 -2 -75 0 -21 2 -4 4 37 4 41 0 58 -2 38
-4z m70 -20 c-21 -2 -57 -2 -80 0 -24 2 -7 4 37 4 44 0 63 -2 43 -4z m-160
-10 c-21 -2 -55 -2 -75 0 -21 2 -4 4 37 4 41 0 58 -2 38 -4z m230 -10 c-21 -2
-57 -2 -80 0 -24 2 -7 4 37 4 44 0 63 -2 43 -4z m-160 -10 c-21 -2 -57 -2 -80
0 -24 2 -7 4 37 4 44 0 63 -2 43 -4z m220 -10 c-21 -2 -55 -2 -75 0 -21 2 -4
4 37 4 41 0 58 -2 38 -4z m-160 -10 c-21 -2 -55 -2 -75 0 -21 2 -4 4 37 4 41
0 58 -2 38 -4z m300 -30 c-21 -2 -57 -2 -80 0 -24 2 -7 4 37 4 44 0 63 -2 43
-4z m-160 -10 c-21 -2 -57 -2 -80 0 -24 2 -7 4 37 4 44 0 63 -2 43 -4z m-160
-10 c-21 -2 -55 -2 -75 0 -21 2 -4 4 37 4 41 0 58 -2 38 -4z m300 -30 c-21 -2
-57 -2 -80 0 -24 2 -7 4 37 4 44 0 63 -2 43 -4z m-160 -10 c-21 -2 -55 -2 -75
0 -21 2 -4 4 37 4 41 0 58 -2 38 -4z"/>
<path d="M1450 7150 c0 -47 4 -80 10 -80 6 0 10 33 10 80 0 47 -4 80 -10 80
-6 0 -10 -33 -10 -80z"/>
<path d="M1480 7131 c0 -47 4 -81 10 -81 6 0 10 31 10 74 0 41 -4 78 -10 81
-6 4 -10 -23 -10 -74z"/>
<path d="M1510 7105 c0 -55 4 -84 10 -80 6 3 10 39 10 80 0 41 -4 77 -10 80
-6 4 -10 -25 -10 -80z"/>
<path d="M1540 7087 c0 -53 4 -86 9 -82 6 3 14 -3 20 -12 8 -13 10 5 11 70 0
53 -4 86 -9 82 -6 -3 -14 3 -20 12 -8 13 -10 -5 -11 -70z"/>
<path d="M1590 7046 c0 -41 5 -78 10 -81 6 -4 10 23 10 74 0 47 -4 81 -10 81
-6 0 -10 -31 -10 -74z"/>
<path d="M1620 7021 c0 -44 5 -83 10 -86 6 -4 10 25 10 79 0 51 -4 86 -10 86
-6 0 -10 -33 -10 -79z"/>
<path d="M1650 7001 c0 -44 5 -83 10 -86 6 -4 10 25 10 79 0 51 -4 86 -10 86
-6 0 -10 -33 -10 -79z"/>
<path d="M1680 6976 c0 -41 5 -78 10 -81 6 -4 10 23 10 74 0 47 -4 81 -10 81
-6 0 -10 -31 -10 -74z"/>
<path d="M1710 6950 c0 -47 4 -80 10 -80 6 0 10 33 10 80 0 47 -4 80 -10 80
-6 0 -10 -33 -10 -80z"/>
<path d="M1740 6931 c0 -47 4 -81 10 -81 6 0 10 31 10 74 0 41 -4 78 -10 81
-6 4 -10 -23 -10 -74z"/>
<path d="M1770 6906 c0 -51 4 -86 10 -86 6 0 10 33 10 79 0 44 -4 83 -10 86
-6 4 -10 -25 -10 -79z"/>
<path d="M1800 6881 c0 -47 4 -81 10 -81 6 0 10 31 10 74 0 41 -4 78 -10 81
-6 4 -10 -23 -10 -74z"/>
<path d="M1830 6861 c0 -47 4 -81 10 -81 6 0 10 31 10 74 0 41 -4 78 -10 81
-6 4 -10 -23 -10 -74z"/>
<path d="M1860 6837 c0 -56 4 -86 10 -82 13 8 13 135 0 155 -7 10 -10 -13 -10
-73z"/>
<path d="M1460 6891 c0 -11 5 -23 10 -26 6 -3 10 3 10 14 0 11 -4 23 -10 26
-5 3 -10 -3 -10 -14z"/>
<path d="M1890 6817 c0 -56 4 -86 10 -82 13 8 13 135 0 155 -7 10 -10 -13 -10
-73z"/>
<path d="M1923 6790 c0 -47 2 -66 4 -42 2 23 2 61 0 85 -2 23 -4 4 -4 -43z"/>
<path d="M1450 6631 c0 -47 4 -81 10 -81 6 0 10 31 10 74 0 41 -4 78 -10 81
-6 4 -10 -23 -10 -74z"/>
<path d="M1480 6606 c0 -51 4 -86 10 -86 6 0 10 33 10 79 0 44 -4 83 -10 86
-6 4 -10 -25 -10 -79z"/>
<path d="M1510 6588 c0 -52 4 -88 10 -88 13 0 13 140 0 160 -7 10 -10 -12 -10
-72z"/>
<path d="M1540 6561 c0 -46 3 -81 7 -77 4 3 13 -4 20 -16 11 -20 12 -11 13 65
0 53 -4 86 -9 82 -6 -3 -14 3 -20 12 -8 13 -10 -3 -11 -66z"/>
<path d="M1597 6593 c-11 -10 -8 -136 3 -153 7 -10 10 12 10 73 0 87 -1 93
-13 80z"/>
<path d="M1620 6496 c0 -41 5 -78 10 -81 6 -4 10 23 10 74 0 47 -4 81 -10 81
-6 0 -10 -31 -10 -74z"/>
<path d="M1650 6470 c0 -47 4 -80 10 -80 6 0 10 33 10 80 0 47 -4 80 -10 80
-6 0 -10 -33 -10 -80z"/>
<path d="M1680 6451 c0 -44 5 -83 10 -86 6 -4 10 23 10 74 0 44 -4 83 -10 86
-6 4 -10 -23 -10 -74z"/>
<path d="M1710 6420 c0 -47 4 -80 10 -80 6 0 10 33 10 80 0 47 -4 80 -10 80
-6 0 -10 -33 -10 -80z"/>
<path d="M1740 6400 c0 -47 4 -80 10 -80 6 0 10 33 10 80 0 47 -4 80 -10 80
-6 0 -10 -33 -10 -80z"/>
<path d="M1770 6381 c0 -47 4 -81 10 -81 6 0 10 31 10 74 0 41 -4 78 -10 81
-6 4 -10 -23 -10 -74z"/>
<path d="M1800 6356 c0 -51 4 -86 10 -86 6 0 10 33 10 79 0 44 -4 83 -10 86
-6 4 -10 -25 -10 -79z"/>
<path d="M1542 6412 c-9 -6 1 -18 33 -41 24 -17 50 -37 57 -44 7 -7 31 -26 53
-42 22 -17 45 -35 50 -41 6 -6 47 -39 91 -72 45 -34 88 -67 95 -74 8 -7 57
-47 109 -88 52 -41 113 -89 135 -108 22 -18 45 -36 50 -40 20 -14 200 -157
205 -162 3 -4 64 -52 136 -108 73 -55 138 -107 145 -114 8 -7 46 -38 84 -68
39 -30 77 -60 85 -67 8 -8 49 -40 90 -73 70 -56 75 -64 82 -107 8 -56 30 -77
72 -69 16 3 49 6 75 6 36 1 42 3 29 11 -15 9 -18 26 -18 119 0 62 4 111 10
115 6 4 10 73 10 175 0 102 -4 171 -10 175 -5 3 -10 44 -10 90 0 62 4 88 16
99 14 14 8 15 -63 10 -43 -4 -84 -12 -92 -19 -11 -11 -13 -70 -12 -314 1 -166
-1 -301 -4 -301 -3 0 -335 261 -737 580 -403 319 -737 580 -743 580 -5 0 -16
-4 -23 -8z m1614 -1176 c3 -8 4 -27 2 -42 l-3 -28 -29 26 c-20 16 -27 30 -23
41 8 21 46 22 53 3z"/>
<path d="M1830 6331 c0 -47 4 -81 10 -81 6 0 10 31 10 74 0 41 -4 78 -10 81
-6 4 -10 -23 -10 -74z"/>
<path d="M1860 6307 c0 -56 4 -86 10 -82 13 8 13 135 0 155 -7 10 -10 -13 -10
-73z"/>
<path d="M1891 6284 c1 -53 4 -79 8 -64 7 26 4 140 -4 149 -3 2 -5 -36 -4 -85z"/>
<path d="M1450 6261 c0 -47 4 -81 10 -81 6 0 10 31 10 74 0 41 -4 78 -10 81
-6 4 -10 -23 -10 -74z"/>
<path d="M1923 6260 c0 -47 2 -66 4 -42 2 23 2 61 0 85 -2 23 -4 4 -4 -43z"/>
<path d="M1480 6243 c0 -49 4 -83 10 -83 13 0 13 130 0 150 -7 10 -10 -11 -10
-67z"/>
<path d="M1513 6210 c0 -47 2 -66 4 -42 2 23 2 61 0 85 -2 23 -4 4 -4 -43z"/>
<path d="M1543 6190 c0 -47 2 -66 4 -42 2 23 2 61 0 85 -2 23 -4 4 -4 -43z"/>
<path d="M1573 6170 c0 -47 2 -66 4 -42 2 23 2 61 0 85 -2 23 -4 4 -4 -43z"/>
<path d="M2290 6243 c0 -5 5 -15 10 -23 8 -12 10 -11 10 8 0 12 -4 22 -10 22
-5 0 -10 -3 -10 -7z"/>
<path d="M7560 6223 c-62 -6 -82 -13 -73 -26 4 -7 6 -176 3 -376 l-5 -363 63
5 c35 4 67 9 72 12 6 4 10 50 10 104 0 54 5 102 11 108 10 10 7 181 -6 421 -7
113 -11 120 -75 115z m30 -653 c0 -39 -23 -74 -44 -67 -19 6 -20 89 -1 103 27
20 45 6 45 -36z"/>
<path d="M1603 6140 c0 -47 2 -66 4 -42 2 23 2 61 0 85 -2 23 -4 4 -4 -43z"/>
<path d="M1620 6126 c0 -41 5 -78 10 -81 6 -4 10 23 10 74 0 47 -4 81 -10 81
-6 0 -10 -31 -10 -74z"/>
<path d="M1650 6106 c0 -41 5 -78 10 -81 6 -4 10 21 10 69 0 41 -4 78 -10 81
-6 4 -10 -21 -10 -69z"/>
<path d="M6342 6163 c-10 -4 -8 -9 7 -20 19 -13 21 -24 21 -114 l0 -99 26 0
c56 0 64 13 64 104 0 64 4 87 16 97 14 12 14 14 -2 26 -17 13 -106 17 -132 6z"/>
<path d="M6206 6151 c-3 -4 3 -16 14 -26 16 -15 18 -29 16 -111 l-3 -95 41 3
41 3 3 93 c3 89 2 93 -24 117 -26 25 -77 34 -88 16z"/>
<path d="M1680 6076 c0 -41 5 -78 10 -81 6 -4 10 23 10 74 0 47 -4 81 -10 81
-6 0 -10 -31 -10 -74z"/>
<path d="M6072 6143 c-10 -4 -8 -9 7 -20 19 -13 21 -24 21 -114 l0 -99 40 0
40 0 0 99 c0 96 -1 100 -26 120 -26 20 -55 25 -82 14z"/>
<path d="M5937 6133 c-18 -5 -18 -6 2 -19 19 -14 21 -25 21 -115 l0 -99 40 0
40 0 0 101 c0 92 -2 102 -22 120 -23 18 -45 21 -81 12z"/>
<path d="M1710 6051 c0 -47 4 -81 10 -81 6 0 10 31 10 74 0 41 -4 78 -10 81
-6 4 -10 -23 -10 -74z"/>
<path d="M5802 6122 c-9 -7 -8 -13 8 -27 17 -16 19 -28 17 -111 l-3 -94 43 0
43 0 0 95 c0 91 -1 97 -26 120 -27 25 -58 31 -82 17z"/>
<path d="M5668 6113 c-15 -4 -15 -6 3 -24 16 -16 19 -33 19 -114 l0 -95 40 0
40 0 0 99 c0 96 -1 100 -26 120 -26 20 -41 23 -76 14z"/>
<path d="M7287 6113 c-4 -3 -7 -53 -7 -110 0 -85 3 -103 15 -103 12 0 15 19
15 110 0 101 -5 122 -23 103z"/>
<path d="M7344 6107 c-10 -28 1 -200 14 -205 9 -3 12 23 12 107 0 70 -4 111
-10 111 -6 0 -13 -6 -16 -13z"/>
<path d="M1740 6031 c0 -47 4 -81 10 -81 6 0 10 31 10 74 0 41 -4 78 -10 81
-6 4 -10 -23 -10 -74z"/>
<path d="M5531 6103 l-23 -5 21 -14 c19 -14 21 -25 21 -115 l0 -99 40 0 40 0
0 98 c0 90 -2 100 -23 120 -23 22 -31 23 -76 15z"/>
<path d="M7167 6103 c-11 -11 -8 -581 3 -588 7 -4 10 97 10 294 0 166 -1 301
-3 301 -2 0 -7 -3 -10 -7z"/>
<path d="M7222 5818 c2 -222 6 -292 16 -296 9 -3 12 60 12 292 0 258 -2 296
-15 296 -13 0 -15 -37 -13 -292z"/>
<path d="M5396 6093 c-28 -4 -28 -5 -7 -19 19 -14 21 -25 21 -115 l0 -100 43
3 42 3 3 93 c3 89 2 93 -24 117 -15 14 -32 24 -38 24 -6 -1 -24 -4 -40 -6z"/>
<path d="M7035 6087 c-10 -25 0 -582 10 -582 6 0 11 108 13 298 1 202 -1 297
-8 297 -6 0 -13 -6 -15 -13z"/>
<path d="M7096 6084 c-3 -9 -6 -134 -6 -279 0 -145 3 -270 6 -279 19 -49 24
11 24 279 0 268 -5 328 -24 279z"/>
<path d="M1770 6013 c0 -49 4 -83 10 -83 13 0 13 130 0 150 -7 10 -10 -11 -10
-67z"/>
<path d="M5262 6082 c-23 -7 -23 -7 -3 -24 18 -15 20 -28 17 -112 l-2 -96 43
0 43 0 0 95 c0 91 -1 97 -26 120 -28 26 -34 27 -72 17z"/>
<path d="M6917 6083 c-11 -11 -8 -581 3 -588 7 -4 10 97 10 294 0 166 -1 301
-3 301 -2 0 -7 -3 -10 -7z"/>
<path d="M6972 5798 c2 -222 6 -292 16 -296 9 -3 12 60 12 292 0 258 -2 296
-15 296 -13 0 -15 -37 -13 -292z"/>
<path d="M5126 6071 l-28 -6 21 -19 c19 -17 21 -30 21 -113 l0 -93 40 0 40 0
0 99 c0 96 -1 100 -26 120 -15 12 -29 20 -33 20 -3 -1 -19 -4 -35 -8z"/>
<path d="M6785 6067 c-3 -7 -4 -138 -3 -291 2 -213 6 -280 16 -284 9 -3 12 60
12 292 0 197 -3 296 -10 296 -6 0 -13 -6 -15 -13z"/>
<path d="M6850 5785 c0 -190 4 -295 10 -295 6 0 10 105 10 295 0 190 -4 295
-10 295 -6 0 -10 -105 -10 -295z"/>
<path d="M4991 6061 l-33 -6 21 -19 c19 -17 21 -30 21 -115 l0 -97 40 4 40 4
0 98 c0 80 -3 100 -17 112 -27 22 -35 25 -72 19z"/>
<path d="M6667 6063 c-12 -11 -8 -583 3 -583 6 0 10 105 10 295 0 162 -1 295
-3 295 -2 0 -7 -3 -10 -7z"/>
<path d="M6722 5778 c2 -222 6 -292 16 -296 9 -3 12 60 12 292 0 258 -2 296
-15 296 -13 0 -15 -37 -13 -292z"/>
<path d="M1803 5980 c0 -47 2 -66 4 -42 2 23 2 61 0 85 -2 23 -4 4 -4 -43z"/>
<path d="M4851 6051 l-33 -6 21 -19 c19 -17 21 -30 21 -119 0 -86 2 -98 16
-93 9 3 27 6 40 6 24 0 24 1 24 98 0 82 -3 102 -17 114 -27 22 -35 25 -72 19z"/>
<path d="M6600 5765 c0 -190 4 -295 10 -295 6 0 10 105 10 295 0 190 -4 295
-10 295 -6 0 -10 -105 -10 -295z"/>
<path d="M1833 5960 c0 -47 2 -66 4 -42 2 23 2 61 0 85 -2 23 -4 4 -4 -43z"/>
<path d="M4698 6017 c20 -21 22 -34 22 -121 0 -97 0 -98 23 -92 12 3 30 6 40
6 15 0 17 11 17 98 0 116 -10 132 -80 132 l-43 0 21 -23z"/>
<path d="M4558 6007 c20 -21 22 -34 22 -121 l0 -98 31 6 c17 3 35 6 40 6 5 0
9 44 9 98 0 116 -10 132 -80 132 l-43 0 21 -23z"/>
<path d="M1460 6001 c0 -11 5 -23 10 -26 6 -3 10 3 10 14 0 11 -4 23 -10 26
-5 3 -10 -3 -10 -14z"/>
<path d="M1864 5935 c0 -49 1 -71 3 -48 2 23 2 64 0 90 -2 26 -3 8 -3 -42z"/>
<path d="M4418 5997 c20 -21 22 -34 22 -121 l0 -99 36 6 c20 3 39 8 41 11 3 2
4 46 4 97 -1 112 -12 129 -79 129 l-45 0 21 -23z"/>
<path d="M4220 6000 c0 -6 16 -18 35 -27 l34 -16 3 -91 c3 -98 8 -106 64 -92
23 6 24 9 24 106 0 91 -2 100 -22 114 -25 18 -138 22 -138 6z"/>
<path d="M1893 5910 c0 -47 2 -66 4 -42 2 23 2 61 0 85 -2 23 -4 4 -4 -43z"/>
<path d="M1923 5890 c0 -47 2 -66 4 -42 2 23 2 61 0 85 -2 23 -4 4 -4 -43z"/>
<path d="M4060 5811 c0 -34 4 -61 10 -61 24 0 26 110 3 118 -10 3 -13 -13 -13
-57z"/>
<path d="M4125 5857 c-3 -7 -4 -140 -3 -296 2 -217 6 -285 16 -289 9 -3 12 61
12 297 0 200 -3 301 -10 301 -6 0 -13 -6 -15 -13z"/>
<path d="M3866 5853 c-3 -3 -6 -33 -6 -65 0 -45 3 -58 15 -58 12 0 15 13 15
59 0 56 -9 79 -24 64z"/>
<path d="M3927 5809 c-7 -53 -3 -69 14 -69 5 0 9 27 9 60 0 73 -15 79 -23 9z"/>
<path d="M3992 5803 c4 -81 28 -85 28 -4 0 48 -3 61 -15 61 -13 0 -15 -11 -13
-57z"/>
<path d="M3737 5843 c-11 -10 -8 -123 3 -123 6 0 10 28 10 65 0 65 -1 71 -13
58z"/>
<path d="M3794 5836 c-9 -22 0 -111 11 -111 6 0 11 28 13 63 2 39 -1 62 -8 62
-6 0 -13 -6 -16 -14z"/>
<path d="M3601 5826 c-16 -18 -10 -108 7 -114 9 -3 12 14 12 62 0 36 -2 66 -4
66 -2 0 -9 -6 -15 -14z"/>
<path d="M3664 5826 c-9 -22 0 -111 11 -111 6 0 11 28 13 63 2 39 -1 62 -8 62
-6 0 -13 -6 -16 -14z"/>
<path d="M3530 5771 c0 -67 16 -90 25 -38 9 45 3 90 -12 95 -10 3 -13 -13 -13
-57z"/>
<path d="M1450 5741 c0 -47 4 -81 10 -81 6 0 10 31 10 74 0 41 -4 78 -10 81
-6 4 -10 -23 -10 -74z"/>
<path d="M3394 5806 c-9 -25 1 -109 14 -114 9 -3 12 14 12 62 0 61 -13 87 -26
52z"/>
<path d="M3460 5760 c0 -47 3 -60 15 -60 12 0 15 13 15 60 0 47 -3 60 -15 60
-12 0 -15 -13 -15 -60z"/>
<path d="M1480 5710 c0 -52 4 -79 10 -75 6 3 10 37 10 75 0 38 -4 72 -10 75
-6 4 -10 -23 -10 -75z"/>
<path d="M1513 5690 c0 -47 2 -66 4 -42 2 23 2 61 0 85 -2 23 -4 4 -4 -43z"/>
<path d="M1544 5665 c0 -49 1 -71 3 -48 2 23 2 64 0 90 -2 26 -3 8 -3 -42z"/>
<path d="M7293 5743 c-9 -3 -13 -35 -13 -109 0 -86 3 -104 15 -104 12 0 15 19
15 110 0 61 -1 110 -2 109 -2 0 -9 -3 -15 -6z"/>
<path d="M7345 5728 c-11 -42 -1 -191 13 -196 9 -3 12 23 12 107 0 66 -4 111
-10 111 -5 0 -12 -10 -15 -22z"/>
<path d="M1573 5640 c0 -47 2 -66 4 -42 2 23 2 61 0 85 -2 23 -4 4 -4 -43z"/>
<path d="M1603 5620 c0 -47 2 -66 4 -42 2 23 2 61 0 85 -2 23 -4 4 -4 -43z"/>
<path d="M3935 5690 c-48 -7 -47 -7 24 -8 81 -2 87 -12 13 -23 l-47 -6 55 -2
55 -3 -35 -13 -35 -13 35 -2 c32 -2 33 -3 10 -10 -24 -8 -24 -8 -2 -9 26 -1
30 -18 5 -24 -17 -4 -17 -5 0 -6 30 -2 19 -20 -15 -24 l-33 -4 33 -1 c30 -2
32 -4 30 -34 -1 -18 -7 -36 -13 -40 -6 -5 -6 -8 3 -8 18 0 15 -18 -5 -23 -10
-3 0 -5 22 -4 l40 2 3 133 3 132 -48 -2 c-26 0 -70 -4 -98 -8z"/>
<path d="M1620 5603 c0 -38 5 -75 10 -83 7 -10 10 11 10 68 0 48 -4 82 -10 82
-6 0 -10 -29 -10 -67z"/>
<path d="M3535 5663 c-33 -2 -75 -5 -92 -8 l-33 -6 0 -134 0 -135 27 0 c67 0
302 24 298 30 -3 4 -5 31 -6 59 -1 29 -6 54 -11 57 -4 3 -6 9 -3 14 3 5 1 11
-3 14 -5 3 -10 -27 -11 -67 -1 -39 -4 -73 -5 -74 -2 -2 -52 -6 -111 -8 -59 -3
-111 -8 -116 -11 -5 -3 -9 6 -9 20 0 19 5 26 19 26 11 0 22 -6 24 -12 3 -7 6
4 6 24 1 20 7 39 14 42 10 5 10 7 0 12 -18 8 -16 25 2 18 8 -4 16 -14 16 -23
2 -28 18 62 18 107 l1 42 44 0 c25 0 48 5 51 10 4 6 -7 9 -27 8 -18 -1 -60 -3
-93 -5z m-35 -38 c0 -8 -3 -15 -6 -15 -3 0 -12 7 -20 15 -14 13 -13 15 5 15
12 0 21 -6 21 -15z m42 -8 c2 -12 3 -28 0 -35 -6 -18 -32 12 -32 37 0 28 27
27 32 -2z"/>
<path d="M1650 5576 c0 -41 5 -78 10 -81 6 -4 10 23 10 74 0 47 -4 81 -10 81
-6 0 -10 -31 -10 -74z"/>
<path d="M1680 5551 c0 -47 4 -81 10 -81 6 0 10 31 10 74 0 41 -4 78 -10 81
-6 4 -10 -23 -10 -74z"/>
<path d="M3595 5620 c-3 -5 -1 -10 4 -10 6 0 11 5 11 10 0 6 -2 10 -4 10 -3 0
-8 -4 -11 -10z"/>
<path d="M1710 5526 c0 -41 5 -78 10 -81 6 -4 10 23 10 74 0 47 -4 81 -10 81
-6 0 -10 -31 -10 -74z"/>
<path d="M3596 5543 c9 -78 14 -79 14 -5 0 38 -4 62 -11 62 -7 0 -8 -19 -3
-57z"/>
<path d="M1740 5501 c0 -47 4 -81 10 -81 6 0 10 31 10 74 0 41 -4 78 -10 81
-6 4 -10 -23 -10 -74z"/>
<path d="M6165 5555 c-88 -7 -198 -16 -245 -19 -47 -4 -101 -8 -120 -11 -19
-2 -64 -7 -100 -9 -36 -3 -144 -12 -240 -21 -96 -8 -303 -24 -460 -35 -157
-11 -343 -25 -415 -30 -71 -6 -155 -12 -185 -14 -30 -2 -67 -8 -82 -14 -27
-11 -27 -13 -30 -109 l-3 -98 -35 3 c-27 2 -32 0 -20 -9 11 -8 -2 -9 -52 -6
-37 3 -66 2 -64 -2 2 -3 -183 -21 -412 -39 -230 -18 -428 -36 -442 -38 -24 -6
-24 -6 10 -20 29 -13 53 -13 150 -4 63 6 175 15 249 21 74 5 137 12 141 14 3
2 51 7 105 10 55 3 118 8 140 10 168 17 402 39 645 60 156 14 204 18 310 29
25 3 90 8 145 12 55 3 109 8 120 10 11 3 79 9 150 14 72 5 144 12 160 14 37 6
114 14 220 21 44 3 91 8 105 10 28 4 113 12 235 20 44 4 118 10 165 15 110 12
174 18 290 26 52 3 115 10 140 14 l45 7 -40 1 c-22 1 -85 -3 -140 -8 -55 -6
-107 -7 -117 -4 -14 4 -18 20 -20 97 l-3 92 -70 1 c-38 1 -142 -4 -230 -11z
m205 -89 l0 -83 -30 -7 c-32 -6 -73 11 -67 29 2 5 13 11 25 13 19 3 22 10 22
45 0 61 10 87 31 87 17 0 19 -8 19 -84z m-135 17 c12 -107 12 -109 -32 -116
-29 -5 -42 -2 -56 12 -18 18 -18 19 7 25 23 6 26 11 26 52 0 96 45 118 55 27z
m-135 -24 c0 -40 4 -59 13 -60 10 0 10 -2 0 -6 -7 -2 -13 -11 -13 -19 0 -8 -6
-14 -12 -14 -7 0 -24 -3 -37 -7 -18 -5 -22 -3 -16 7 5 9 4 11 -3 6 -7 -4 -22
0 -33 8 -21 14 -21 15 12 18 34 3 34 4 39 61 5 54 22 83 42 71 4 -3 8 -32 8
-65z m-140 4 c0 -32 3 -68 6 -80 5 -19 0 -25 -27 -37 -29 -12 -36 -12 -56 1
-30 20 -29 33 2 33 24 0 25 3 25 54 0 36 5 60 16 70 27 27 34 18 34 -41z
m-136 15 c3 -13 6 -48 6 -80 0 -54 -1 -56 -31 -67 -25 -9 -35 -7 -55 7 -30 22
-30 32 1 32 23 0 25 4 25 43 0 60 10 87 30 87 10 0 20 -10 24 -22z m-136 -70
c-3 -81 -3 -82 -33 -89 -21 -6 -34 -4 -47 8 -24 21 -23 31 5 35 19 3 22 10 25
53 3 66 7 75 32 75 20 0 21 -5 18 -82z m-138 -12 l0 -84 -32 -5 c-22 -3 -39 1
-50 11 -25 21 -22 32 7 32 23 0 25 3 25 49 0 62 7 81 31 81 17 0 19 -8 19 -84z
m-138 9 c1 -36 2 -73 2 -82 1 -26 -61 -39 -85 -17 -26 23 -24 34 6 34 23 0 25
3 25 49 0 62 7 81 31 81 17 0 19 -8 21 -65z m-137 13 c4 -24 5 -61 3 -82 -3
-36 -6 -41 -37 -49 -28 -7 -38 -5 -54 12 l-20 20 26 6 c24 6 27 12 27 49 0 60
10 86 31 86 13 0 19 -10 24 -42z m-141 16 c3 -9 6 -46 6 -84 l0 -67 -37 -6
c-27 -5 -42 -2 -56 11 -18 16 -18 17 5 22 15 4 24 14 26 30 10 98 13 110 32
110 10 0 21 -7 24 -16z m-136 -80 l3 -81 -38 -6 c-30 -5 -42 -2 -58 13 -19 20
-19 20 6 20 25 0 27 4 32 59 6 69 12 83 35 79 14 -3 18 -18 20 -84z m-138 -12
c0 -77 0 -78 -30 -89 -27 -10 -34 -9 -58 12 l-27 24 27 1 c24 0 26 4 33 60 5
40 13 63 23 69 27 15 32 3 32 -77z m-140 -6 l0 -84 -32 -11 c-26 -9 -35 -8
-50 5 -23 22 -23 34 2 34 16 0 20 10 26 61 6 58 14 69 52 78 1 1 2 -37 2 -83z
m-144 -91 c-7 -20 -59 -25 -78 -8 -23 21 -23 33 1 33 16 0 20 10 26 61 6 49
11 62 29 68 20 8 21 5 24 -67 2 -41 1 -81 -2 -87z m-136 61 l0 -84 -32 -4
c-35 -6 -68 9 -68 29 0 7 9 13 20 13 12 0 20 7 21 18 3 81 13 112 39 112 18 0
20 -6 20 -84z"/>
<path d="M1770 5483 c0 -49 4 -83 10 -83 13 0 13 130 0 150 -7 10 -10 -11 -10
-67z"/>
<path d="M3643 5525 c0 -22 2 -30 4 -17 2 12 2 30 0 40 -3 9 -5 -1 -4 -23z"/>
<path d="M1530 5523 c0 -7 38 -40 135 -118 33 -27 94 -76 135 -110 41 -34 102
-83 135 -109 33 -26 71 -58 85 -70 14 -12 56 -46 95 -76 38 -30 77 -62 85 -70
9 -8 39 -33 68 -55 28 -21 52 -43 52 -47 0 -4 7 -8 15 -8 8 0 15 -3 15 -8 0
-4 32 -32 71 -61 39 -30 77 -61 84 -68 7 -7 48 -40 92 -75 43 -34 80 -64 83
-67 3 -3 39 -33 80 -66 41 -33 77 -62 80 -65 3 -3 25 -21 50 -40 25 -19 47
-37 50 -40 14 -16 94 -69 98 -65 2 2 2 10 -1 18 -3 8 -334 283 -736 611 -645
526 -771 622 -771 589z"/>
<path d="M1803 5450 c0 -47 2 -66 4 -42 2 23 2 61 0 85 -2 23 -4 4 -4 -43z"/>
<path d="M1833 5430 c0 -47 2 -66 4 -42 2 23 2 61 0 85 -2 23 -4 4 -4 -43z"/>
<path d="M1864 5405 c0 -49 1 -71 3 -48 2 23 2 64 0 90 -2 26 -3 8 -3 -42z"/>
<path d="M3751 5454 c0 -11 3 -14 6 -6 3 7 2 16 -1 19 -3 4 -6 -2 -5 -13z"/>
<path d="M1893 5380 c0 -47 2 -66 4 -42 2 23 2 61 0 85 -2 23 -4 4 -4 -43z"/>
<path d="M1450 5366 c0 -41 5 -78 10 -81 6 -4 10 23 10 74 0 47 -4 81 -10 81
-6 0 -10 -31 -10 -74z"/>
<path d="M1923 5360 c0 -47 2 -66 4 -42 2 23 2 61 0 85 -2 23 -4 4 -4 -43z"/>
<path d="M7173 5423 c15 -2 39 -2 55 0 15 2 2 4 -28 4 -30 0 -43 -2 -27 -4z"/>
<path d="M1480 5341 c0 -47 4 -81 10 -81 6 0 10 31 10 74 0 41 -4 78 -10 81
-6 4 -10 -23 -10 -74z"/>
<path d="M6910 5404 l-125 -13 105 5 c115 4 233 14 239 20 7 7 -90 1 -219 -12z"/>
<path d="M1510 5323 c0 -49 4 -83 10 -83 13 0 13 130 0 150 -7 10 -10 -11 -10
-67z"/>
<path d="M4067 5383 c-10 -10 -8 -111 2 -117 12 -8 21 18 21 62 0 39 -12 67
-23 55z"/>
<path d="M3933 5369 c-15 -15 -17 -87 -3 -109 15 -24 21 -5 18 59 -2 50 -5 60
-15 50z"/>
<path d="M3997 5373 c-4 -3 -7 -30 -7 -60 0 -40 4 -53 15 -53 12 0 15 13 15
60 0 55 -6 70 -23 53z"/>
<path d="M1543 5290 c0 -47 2 -66 4 -42 2 23 2 61 0 85 -2 23 -4 4 -4 -43z"/>
<path d="M3794 5356 c-9 -25 1 -109 14 -114 9 -3 12 14 12 62 0 61 -13 87 -26
52z"/>
<path d="M3860 5311 c0 -59 12 -86 24 -55 3 9 6 38 6 65 0 37 -4 49 -15 49
-12 0 -15 -13 -15 -59z"/>
<path d="M3667 5353 c-4 -3 -7 -33 -7 -65 0 -45 3 -58 15 -58 12 0 15 14 15
65 0 60 -6 75 -23 58z"/>
<path d="M3726 5344 c-11 -30 -6 -91 9 -104 13 -11 15 -4 15 54 0 63 -11 85
-24 50z"/>
<path d="M1573 5270 c0 -47 2 -66 4 -42 2 23 2 61 0 85 -2 23 -4 4 -4 -43z"/>
<path d="M3537 5343 c-10 -10 -8 -123 2 -123 13 0 21 26 21 68 0 39 -12 67
-23 55z"/>
<path d="M3594 5336 c-9 -25 1 -109 14 -114 9 -3 12 14 12 62 0 61 -13 87 -26
52z"/>
<path d="M2290 5328 c0 -7 5 -20 10 -28 8 -12 10 -9 10 13 0 15 -4 27 -10 27
-5 0 -10 -6 -10 -12z"/>
<path d="M3464 5326 c-9 -22 0 -111 11 -111 6 0 11 28 13 63 2 39 -1 62 -8 62
-6 0 -13 -6 -16 -14z"/>
<path d="M1604 5245 c0 -49 1 -71 3 -48 2 23 2 64 0 90 -2 26 -3 8 -3 -42z"/>
<path d="M3394 5316 c-9 -24 1 -99 14 -104 9 -3 12 13 12 57 0 57 -13 81 -26
47z"/>
<path d="M7530 5321 c-33 -4 -50 -9 -42 -14 9 -6 12 -91 12 -366 0 -272 -3
-360 -12 -370 -11 -10 -2 -11 47 -6 101 11 95 4 95 114 0 54 5 102 10 107 17
17 -3 534 -20 534 -5 0 -14 1 -22 3 -7 2 -38 1 -68 -2z m55 -612 c28 -44 8
-99 -34 -99 -18 0 -21 6 -21 43 0 43 13 67 36 67 7 0 16 -5 19 -11z"/>
<path d="M1633 5220 c0 -47 2 -66 4 -42 2 23 2 61 0 85 -2 23 -4 4 -4 -43z"/>
<path d="M1657 5273 c-11 -10 -8 -141 3 -148 6 -4 10 23 10 74 0 81 -1 87 -13
74z"/>
<path d="M6376 5260 l-48 -5 21 -19 c19 -17 21 -30 21 -118 l0 -99 38 7 c20 3
40 9 44 13 3 3 8 46 10 94 2 64 7 90 18 97 31 19 -32 38 -104 30z"/>
<path d="M1680 5176 c0 -41 5 -78 10 -81 6 -4 10 23 10 74 0 47 -4 81 -10 81
-6 0 -10 -31 -10 -74z"/>
<path d="M6200 5242 c0 -4 9 -15 20 -25 17 -15 20 -29 20 -113 l0 -96 31 6
c17 3 35 6 40 6 5 0 9 42 9 94 0 90 -1 96 -26 115 -26 20 -94 30 -94 13z"/>
<path d="M6072 5233 c-10 -4 -8 -9 7 -20 19 -13 21 -24 21 -114 l0 -100 38 3
37 3 3 94 c3 85 1 96 -19 117 -21 23 -56 29 -87 17z"/>
<path d="M1710 5156 c0 -41 5 -78 10 -81 6 -4 10 23 10 74 0 47 -4 81 -10 81
-6 0 -10 -31 -10 -74z"/>
<path d="M5942 5223 l-22 -4 21 -18 c19 -15 21 -27 21 -114 l0 -98 41 3 42 3
3 93 c3 89 2 93 -24 117 -26 25 -36 27 -82 18z"/>
<path d="M5816 5211 l-28 -6 21 -19 c19 -17 21 -30 21 -113 l0 -93 40 0 40 0
0 99 c0 99 0 100 -29 120 -16 12 -31 20 -33 20 -1 -1 -16 -4 -32 -8z"/>
<path d="M7285 5198 c-11 -42 -1 -191 13 -196 9 -3 12 23 12 107 0 66 -4 111
-10 111 -5 0 -12 -10 -15 -22z"/>
<path d="M7350 5110 c0 -67 4 -110 10 -110 6 0 10 43 10 110 0 67 -4 110 -10
110 -6 0 -10 -43 -10 -110z"/>
<path d="M1740 5131 c0 -44 5 -83 10 -86 6 -4 10 23 10 74 0 44 -4 83 -10 86
-6 4 -10 -23 -10 -74z"/>
<path d="M7166 5203 c-10 -10 -7 -581 3 -587 18 -12 21 31 21 304 0 253 -4
303 -24 283z"/>
<path d="M7225 5197 c-3 -7 -4 -138 -3 -291 2 -213 6 -280 16 -284 9 -3 12 60
12 292 0 197 -3 296 -10 296 -6 0 -13 -6 -15 -13z"/>
<path d="M5668 5177 c19 -20 22 -35 22 -115 l0 -92 40 0 40 0 0 98 c0 116 -10
132 -80 132 l-43 0 21 -23z"/>
<path d="M7043 5189 c-10 -10 -13 -81 -13 -288 0 -247 6 -318 25 -300 3 3 4
140 3 303 -2 238 -5 295 -15 285z"/>
<path d="M7100 4905 c0 -190 4 -295 10 -295 6 0 10 105 10 295 0 190 -4 295
-10 295 -6 0 -10 -105 -10 -295z"/>
<path d="M5528 5171 c20 -18 22 -28 22 -121 0 -101 0 -102 23 -96 12 3 32 6
45 6 21 0 22 3 22 89 0 74 -3 92 -21 115 -17 22 -28 26 -67 26 l-47 -1 23 -18z"/>
<path d="M6915 5179 c-10 -27 -1 -584 10 -582 14 4 19 573 5 587 -6 6 -11 4
-15 -5z"/>
<path d="M6975 5177 c-3 -7 -4 -138 -3 -291 2 -213 6 -280 16 -284 9 -3 12 60
12 292 0 197 -3 296 -10 296 -6 0 -13 -6 -15 -13z"/>
<path d="M1770 5100 c0 -47 4 -80 10 -80 6 0 10 33 10 80 0 47 -4 80 -10 80
-6 0 -10 -33 -10 -80z"/>
<path d="M5389 5161 c23 -17 24 -24 24 -120 -1 -110 0 -112 65 -95 21 6 22 11
22 98 0 84 -2 95 -23 114 -17 16 -36 22 -68 22 l-44 0 24 -19z"/>
<path d="M6850 4885 c0 -190 4 -295 10 -295 6 0 10 105 10 295 0 190 -4 295
-10 295 -6 0 -10 -105 -10 -295z"/>
<path d="M5258 5147 c20 -21 22 -34 22 -121 l0 -97 38 3 37 3 3 94 c3 85 1 96
-19 117 -16 18 -33 24 -62 24 l-40 0 21 -23z"/>
<path d="M6727 5163 c-4 -3 -7 -136 -7 -295 0 -249 2 -288 15 -288 13 0 15 39
15 295 0 162 -4 295 -8 295 -5 0 -12 -3 -15 -7z"/>
<path d="M6790 4875 c0 -190 4 -295 10 -295 6 0 10 105 10 295 0 190 -4 295
-10 295 -6 0 -10 -105 -10 -295z"/>
<path d="M1800 5081 c0 -47 4 -81 10 -81 6 0 10 31 10 74 0 41 -4 78 -10 81
-6 4 -10 -23 -10 -74z"/>
<path d="M5118 5153 c-15 -4 -15 -6 3 -24 16 -16 19 -33 19 -114 l0 -95 40 0
40 0 0 98 c0 90 -2 100 -23 120 -22 21 -42 25 -79 15z"/>
<path d="M6607 5153 c-12 -11 -8 -583 3 -583 6 0 10 105 10 295 0 162 -1 295
-3 295 -2 0 -7 -3 -10 -7z"/>
<path d="M6660 4871 c0 -261 6 -332 24 -285 3 9 6 141 6 295 0 241 -2 279 -15
279 -13 0 -15 -39 -15 -289z"/>
<path d="M4987 5141 c-28 -6 -28 -6 -7 -23 17 -16 20 -29 20 -113 l0 -95 40 0
40 0 0 99 c0 96 -1 100 -26 120 -15 12 -29 20 -33 20 -3 -1 -19 -4 -34 -8z"/>
<path d="M1830 5051 c0 -47 4 -81 10 -81 6 0 10 31 10 74 0 41 -4 78 -10 81
-6 4 -10 -23 -10 -74z"/>
<path d="M4838 5107 c20 -21 22 -34 22 -121 0 -85 2 -97 16 -92 9 3 27 6 40 6
24 0 24 1 24 98 0 116 -10 132 -80 132 l-43 0 21 -23z"/>
<path d="M1460 5101 c0 -11 5 -23 10 -26 6 -3 10 3 10 14 0 11 -4 23 -10 26
-5 3 -10 -3 -10 -14z"/>
<path d="M4698 5097 c19 -21 22 -34 22 -120 0 -104 -1 -103 56 -91 l29 6 0 93
c0 114 -13 135 -83 135 l-45 0 21 -23z"/>
<path d="M1860 5033 c0 -49 4 -83 10 -83 13 0 13 130 0 150 -7 10 -10 -11 -10
-67z"/>
<path d="M4558 5087 c19 -21 22 -34 22 -120 l0 -97 33 0 c54 0 58 7 54 107 -3
112 -16 133 -85 133 l-45 0 21 -23z"/>
<path d="M4407 5093 c-4 -3 2 -12 13 -20 18 -13 20 -26 20 -114 l0 -100 42 3
43 3 1 94 c2 86 0 96 -22 117 -22 23 -81 33 -97 17z"/>
<path d="M1891 5007 c-1 -56 3 -86 9 -82 12 7 12 122 0 150 -6 13 -9 -10 -9
-68z"/>
<path d="M4255 5081 l-40 -7 38 -23 37 -23 0 -83 c0 -93 7 -105 58 -98 31 5
32 6 34 62 5 116 1 144 -24 163 -24 18 -37 19 -103 9z"/>
<path d="M1923 4980 c0 -47 2 -66 4 -42 2 23 2 61 0 85 -2 23 -4 4 -4 -43z"/>
<path d="M3110 4953 c-19 -3 -39 -8 -45 -13 -7 -5 -8 -141 -5 -392 l5 -383 24
-3 c14 -2 49 -1 79 3 40 5 51 10 43 18 -18 18 -15 215 4 233 22 22 22 296 0
338 -19 35 -21 176 -3 194 13 13 -23 14 -102 5z m48 -676 c4 -43 -11 -67 -39
-67 -12 0 -19 7 -19 20 0 23 19 26 40 8 8 -7 2 1 -14 19 -25 27 -27 35 -16 48
22 27 45 14 48 -28z"/>
<path d="M4130 4645 c0 -197 4 -305 10 -305 6 0 10 108 10 305 0 197 -4 305
-10 305 -6 0 -10 -108 -10 -305z"/>
<path d="M3994 4926 c-9 -25 1 -109 14 -114 9 -3 12 14 12 62 0 61 -13 87 -26
52z"/>
<path d="M4060 4879 c0 -81 24 -77 28 4 2 46 0 57 -13 57 -12 0 -15 -13 -15
-61z"/>
<path d="M3864 4916 c-9 -25 1 -109 14 -114 9 -3 12 14 12 62 0 61 -13 87 -26
52z"/>
<path d="M3930 4871 c0 -34 4 -61 10 -61 24 0 26 110 3 118 -10 3 -13 -13 -13
-57z"/>
<path d="M1450 4841 c0 -47 4 -81 10 -81 6 0 10 31 10 74 0 41 -4 78 -10 81
-6 4 -10 -23 -10 -74z"/>
<path d="M3736 4913 c-3 -3 -6 -33 -6 -65 0 -45 3 -58 15 -58 12 0 15 13 15
59 0 56 -9 79 -24 64z"/>
<path d="M3794 4906 c-9 -24 1 -99 14 -104 9 -3 12 13 12 57 0 57 -13 81 -26
47z"/>
<path d="M3664 4896 c-9 -25 1 -109 14 -114 9 -3 12 14 12 62 0 61 -13 87 -26
52z"/>
<path d="M1480 4823 c0 -49 4 -83 10 -83 13 0 13 130 0 150 -7 10 -10 -11 -10
-67z"/>
<path d="M3534 4886 c-9 -22 0 -111 11 -111 6 0 11 28 13 63 2 39 -1 62 -8 62
-6 0 -13 -6 -16 -14z"/>
<path d="M3594 4886 c-9 -24 1 -99 14 -104 9 -3 12 13 12 57 0 57 -13 81 -26
47z"/>
<path d="M3408 4884 c-9 -14 -13 -112 -5 -121 14 -13 18 6 15 68 -2 35 -6 59
-10 53z"/>
<path d="M3467 4883 c-4 -3 -7 -30 -7 -60 0 -40 4 -53 15 -53 12 0 15 13 15
60 0 55 -6 70 -23 53z"/>
<path d="M1510 4792 c0 -53 4 -81 10 -77 13 8 13 125 0 145 -7 10 -10 -11 -10
-68z"/>
<path d="M1543 4770 c0 -47 2 -66 4 -42 2 23 2 61 0 85 -2 23 -4 4 -4 -43z"/>
<path d="M7291 4836 c-16 -20 -11 -198 7 -204 9 -3 12 23 12 107 0 61 -2 111
-4 111 -2 0 -9 -6 -15 -14z"/>
<path d="M7350 4740 c0 -67 4 -110 10 -110 6 0 10 43 10 110 0 67 -4 110 -10
110 -6 0 -10 -43 -10 -110z"/>
<path d="M1573 4740 c0 -47 2 -66 4 -42 2 23 2 61 0 85 -2 23 -4 4 -4 -43z"/>
<path d="M1603 4720 c0 -47 2 -66 4 -42 2 23 2 61 0 85 -2 23 -4 4 -4 -43z"/>
<path d="M1633 4690 c0 -47 2 -66 4 -42 2 23 2 61 0 85 -2 23 -4 4 -4 -43z"/>
<path d="M3930 4760 c-29 -6 -22 -8 34 -9 78 -1 81 -8 9 -21 l-48 -8 55 -2
c44 -2 50 -4 30 -10 -24 -8 -24 -8 -2 -9 31 -1 28 -19 -5 -24 l-28 -4 28 -2
c33 -1 36 -18 5 -24 l-23 -4 22 -2 c19 -1 22 -6 21 -36 -1 -19 -6 -35 -12 -35
-6 0 -4 -5 4 -10 12 -8 13 -11 1 -19 -11 -7 -11 -9 0 -14 12 -5 11 -7 -1 -17
-12 -8 -8 -10 20 -8 l35 3 3 133 3 132 -58 -1 c-32 -1 -74 -5 -93 -9z"/>
<path d="M1650 4676 c0 -41 5 -78 10 -81 6 -4 10 23 10 74 0 47 -4 81 -10 81
-6 0 -10 -31 -10 -74z"/>
<path d="M3590 4734 c-14 -2 -60 -6 -102 -9 l-78 -7 0 -134 0 -134 58 1 c31 1
108 6 171 13 86 8 115 15 118 26 4 13 3 13 -6 0 -15 -21 -20 -11 -22 48 -2 28
-7 52 -11 52 -5 0 -6 5 -2 12 4 7 3 8 -4 4 -7 -4 -12 -32 -12 -65 l0 -58 -46
-7 c-92 -12 -94 -11 -94 38 0 42 -18 76 -41 76 -5 0 -9 7 -9 17 0 15 1 15 18
0 10 -10 21 -17 25 -17 3 0 7 28 9 62 2 50 7 63 20 66 15 3 18 -8 21 -85 l3
-88 2 88 c2 80 4 87 22 87 11 0 20 5 20 10 0 10 -8 10 -60 4z m-40 -48 c0 -29
-19 -44 -31 -25 -16 25 -10 49 11 49 15 0 20 -7 20 -24z m0 -171 c0 -38 -3
-45 -20 -45 -17 0 -20 7 -20 45 0 38 3 45 20 45 17 0 20 -7 20 -45z m-50 -30
c0 -18 -5 -25 -20 -25 -15 0 -20 7 -20 25 0 18 5 25 20 25 15 0 20 -7 20 -25z"/>
<path d="M1680 4646 c0 -41 5 -78 10 -81 6 -4 10 23 10 74 0 47 -4 81 -10 81
-6 0 -10 -31 -10 -74z"/>
<path d="M1710 4626 c0 -41 5 -78 10 -81 6 -4 10 23 10 74 0 47 -4 81 -10 81
-6 0 -10 -31 -10 -74z"/>
<path d="M1740 4601 c0 -47 4 -81 10 -81 6 0 10 31 10 74 0 41 -4 78 -10 81
-6 4 -10 -23 -10 -74z"/>
<path d="M6170 4645 c-333 -30 -707 -63 -795 -71 -38 -3 -83 -7 -100 -9 -64
-8 -147 -16 -335 -31 -257 -21 -296 -24 -355 -29 -27 -3 -79 -7 -115 -9 -109
-7 -150 -14 -165 -26 -11 -9 -15 -36 -15 -102 l0 -89 40 3 c36 2 38 3 25 18
-20 22 -19 28 8 32 19 3 22 10 25 48 4 72 10 90 32 90 18 0 20 -7 20 -75 0
-41 1 -78 3 -82 1 -4 -7 -9 -18 -11 -11 -2 -24 -7 -28 -11 -4 -4 17 -3 48 2
38 7 52 14 45 21 -16 16 -12 23 15 30 22 6 25 11 25 55 0 62 7 81 30 81 16 0
19 -10 22 -75 4 -92 3 -95 -30 -95 -14 0 -23 -2 -20 -5 3 -3 31 -2 63 1 49 6
55 9 41 19 -24 18 -20 35 9 35 23 0 25 3 25 49 0 62 7 81 30 81 16 0 19 -10
22 -75 4 -92 3 -95 -30 -96 -15 0 -21 -3 -14 -6 22 -9 105 18 93 30 -18 18
-13 27 14 27 24 0 25 3 25 54 0 52 16 86 41 86 5 0 9 -38 9 -84 0 -82 -1 -84
-26 -90 -15 -4 -24 -9 -22 -12 3 -2 29 2 57 9 48 12 51 15 35 28 -16 13 -15
14 12 19 26 5 29 9 32 50 4 72 10 90 32 90 18 0 20 -7 20 -85 0 -81 -1 -85
-22 -85 -12 0 -19 -2 -16 -5 2 -3 26 -2 52 1 43 6 46 8 31 24 -15 16 -14 18 8
24 20 5 25 14 33 68 8 54 12 63 32 66 21 3 22 1 22 -82 l0 -86 -27 -1 c-18 -1
-22 -3 -10 -6 10 -3 26 -1 35 3 20 9 28 11 43 13 8 1 9 5 0 14 -13 16 -5 27
21 27 13 0 18 8 18 29 0 49 12 92 27 98 23 9 33 -17 33 -89 0 -67 0 -68 27
-68 21 0 24 3 15 12 -19 19 -14 28 13 28 23 0 25 3 25 53 0 56 6 70 31 79 13
5 18 -3 23 -39 3 -25 6 -63 6 -84 0 -33 3 -39 21 -39 16 0 19 4 14 19 -4 15 0
20 17 23 18 2 24 10 26 38 5 79 12 100 32 100 18 0 20 -7 20 -57 0 -32 3 -68
6 -80 7 -27 42 -32 40 -6 0 12 7 19 22 21 19 3 22 9 22 52 0 61 7 80 31 80 17
0 19 -8 19 -75 0 -41 0 -78 1 -82 0 -5 -10 -11 -23 -15 -14 -3 -16 -6 -7 -7
27 -2 83 25 70 33 -15 10 -4 26 18 26 15 0 19 11 24 56 6 62 17 80 41 71 13
-5 16 -22 16 -77 0 -38 3 -70 8 -71 4 0 15 -2 26 -4 14 -3 16 -1 7 8 -18 18
-13 27 14 27 23 0 25 3 25 53 0 57 6 70 33 80 14 5 17 0 19 -31 1 -20 3 -48 4
-62 1 -14 3 -35 3 -47 1 -15 7 -21 21 -20 23 1 26 12 8 24 -9 5 -3 9 17 13 28
5 30 8 35 60 6 61 14 80 36 80 11 0 14 -15 14 -65 0 -36 4 -65 10 -65 5 0 7
-7 4 -15 -4 -11 0 -15 16 -15 19 0 20 3 10 15 -10 12 -7 15 14 21 22 5 26 12
26 44 0 49 15 90 34 90 20 0 26 -22 26 -96 0 -63 0 -64 27 -64 21 0 24 3 15
12 -19 19 -14 28 13 28 23 0 25 3 25 49 0 62 7 81 31 81 17 0 19 -8 19 -67 0
-87 6 -96 56 -85 l39 8 3 79 c3 77 -4 97 -33 94 -5 -1 -125 -12 -265 -24z"/>
<path d="M1770 4570 c0 -47 4 -80 10 -80 6 0 10 33 10 80 0 47 -4 80 -10 80
-6 0 -10 -33 -10 -80z"/>
<path d="M1540 4626 c0 -2 32 -30 72 -62 39 -33 79 -66 89 -75 9 -9 39 -34 65
-55 27 -22 60 -49 74 -61 14 -12 59 -49 100 -83 41 -34 86 -72 100 -84 14 -11
50 -41 80 -65 30 -25 60 -50 65 -55 6 -6 30 -27 55 -46 25 -19 47 -37 50 -40
26 -28 140 -120 148 -120 6 0 12 -4 14 -9 2 -5 35 -35 73 -67 93 -78 125 -106
145 -124 8 -9 34 -29 55 -45 22 -17 45 -34 51 -40 17 -16 104 -89 178 -149 65
-53 114 -78 71 -37 -11 11 -343 290 -738 620 -618 517 -747 620 -747 597z"/>
<path d="M1800 4551 c0 -47 4 -81 10 -81 6 0 10 31 10 74 0 41 -4 78 -10 81
-6 4 -10 -23 -10 -74z"/>
<path d="M3988 4613 c6 -2 18 -2 25 0 6 3 1 5 -13 5 -14 0 -19 -2 -12 -5z"/>
<path d="M1830 4521 c0 -47 4 -81 10 -81 6 0 10 31 10 74 0 41 -4 78 -10 81
-6 4 -10 -23 -10 -74z"/>
<path d="M1860 4503 c0 -49 4 -83 10 -83 13 0 13 130 0 150 -7 10 -10 -11 -10
-67z"/>
<path d="M1891 4477 c-1 -56 3 -86 9 -82 12 7 12 122 0 150 -6 13 -9 -10 -9
-68z"/>
<path d="M1450 4471 c0 -47 4 -81 10 -81 6 0 10 31 10 74 0 41 -4 78 -10 81
-6 4 -10 -23 -10 -74z"/>
<path d="M1480 4451 c0 -47 4 -81 10 -81 6 0 10 31 10 74 0 41 -4 78 -10 81
-6 4 -10 -23 -10 -74z"/>
<path d="M1923 4450 c0 -47 2 -66 4 -42 2 23 2 61 0 85 -2 23 -4 4 -4 -43z"/>
<path d="M1513 4420 c0 -47 2 -66 4 -42 2 23 2 61 0 85 -2 23 -4 4 -4 -43z"/>
<path d="M1543 4400 c0 -47 2 -66 4 -42 2 23 2 61 0 85 -2 23 -4 4 -4 -43z"/>
<path d="M6338 4463 c7 -3 16 -2 19 1 4 3 -2 6 -13 5 -11 0 -14 -3 -6 -6z"/>
<path d="M4067 4453 c-10 -10 -8 -111 2 -117 13 -9 21 19 21 75 0 46 -7 59
-23 42z"/>
<path d="M6198 4453 c6 -2 18 -2 25 0 6 3 1 5 -13 5 -14 0 -19 -2 -12 -5z"/>
<path d="M1573 4370 c0 -47 2 -66 4 -42 2 23 2 61 0 85 -2 23 -4 4 -4 -43z"/>
<path d="M3937 4443 c-10 -10 -8 -111 2 -117 18 -11 29 86 13 112 -5 7 -11 9
-15 5z"/>
<path d="M3994 4436 c-9 -24 1 -99 14 -104 9 -3 12 13 12 57 0 57 -13 81 -26
47z"/>
<path d="M6078 4443 c7 -3 16 -2 19 1 4 3 -2 6 -13 5 -11 0 -14 -3 -6 -6z"/>
<path d="M3794 4417 c-8 -36 -1 -100 14 -105 9 -3 12 14 12 62 0 65 -14 88
-26 43z"/>
<path d="M3860 4380 c0 -47 3 -60 15 -60 12 0 15 13 15 60 0 47 -3 60 -15 60
-12 0 -15 -13 -15 -60z"/>
<path d="M1603 4350 c0 -47 2 -66 4 -42 2 23 2 61 0 85 -2 23 -4 4 -4 -43z"/>
<path d="M2302 4405 c0 -16 2 -22 5 -12 2 9 2 23 0 30 -3 6 -5 -1 -5 -18z"/>
<path d="M3672 4421 c-17 -10 -12 -113 6 -119 9 -3 12 14 12 62 0 36 -1 66 -2
66 -2 0 -9 -4 -16 -9z"/>
<path d="M3730 4371 c0 -59 12 -86 24 -55 3 9 6 38 6 65 0 37 -4 49 -15 49
-12 0 -15 -13 -15 -59z"/>
<path d="M7520 4421 c-28 -4 -40 -9 -32 -14 17 -11 18 -717 1 -734 -9 -9 3
-10 47 -6 95 9 94 8 94 123 0 63 4 100 10 100 12 0 8 237 -7 430 l-8 105 -30
1 c-16 1 -50 -1 -75 -5z m68 -613 c30 -30 -5 -109 -43 -95 -32 13 -14 107 20
107 6 0 16 -5 23 -12z"/>
<path d="M3596 4404 c-14 -37 -4 -114 15 -114 5 0 9 29 9 65 0 62 -11 84 -24
49z"/>
<path d="M5788 4413 c6 -2 18 -2 25 0 6 3 1 5 -13 5 -14 0 -19 -2 -12 -5z"/>
<path d="M3464 4396 c-9 -25 1 -109 14 -114 9 -3 12 14 12 62 0 61 -13 87 -26
52z"/>
<path d="M3530 4349 c0 -81 24 -77 28 4 2 46 0 57 -13 57 -12 0 -15 -13 -15
-61z"/>
<path d="M1620 4333 c0 -38 5 -75 10 -83 7 -10 10 11 10 68 0 48 -4 82 -10 82
-6 0 -10 -29 -10 -67z"/>
<path d="M3396 4348 c-6 -40 -4 -55 8 -67 15 -14 16 -9 16 52 0 79 -15 89 -24
15z"/>
<path d="M5518 4393 c6 -2 18 -2 25 0 6 3 1 5 -13 5 -14 0 -19 -2 -12 -5z"/>
<path d="M5380 4380 c-8 -5 -10 -10 -5 -10 6 0 17 5 25 10 8 5 11 10 5 10 -5
0 -17 -5 -25 -10z"/>
<path d="M1650 4306 c0 -41 5 -78 10 -81 6 -4 10 23 10 74 0 47 -4 81 -10 81
-6 0 -10 -31 -10 -74z"/>
<path d="M5238 4363 c6 -2 18 -2 25 0 6 3 1 5 -13 5 -14 0 -19 -2 -12 -5z"/>
<path d="M6365 4351 c-38 -6 -39 -7 -17 -19 20 -12 22 -19 22 -112 l0 -100 33
0 c48 0 57 15 57 95 0 39 6 81 13 95 22 42 -14 56 -108 41z"/>
<path d="M1680 4276 c0 -41 5 -78 10 -81 6 -4 10 23 10 74 0 47 -4 81 -10 81
-6 0 -10 -31 -10 -74z"/>
<path d="M6200 4335 c0 -3 9 -14 21 -26 18 -18 20 -31 18 -112 -1 -64 2 -92
10 -91 6 1 25 2 41 3 l30 1 0 93 c0 85 -2 96 -23 115 -15 14 -36 22 -60 22
-20 0 -37 -2 -37 -5z"/>
<path d="M1710 4256 c0 -41 5 -78 10 -81 6 -4 10 23 10 74 0 47 -4 81 -10 81
-6 0 -10 -31 -10 -74z"/>
<path d="M6072 4323 c-10 -4 -8 -9 7 -20 19 -13 21 -24 21 -114 0 -98 0 -99
24 -99 53 0 56 5 56 110 0 93 -1 99 -25 114 -24 16 -57 19 -83 9z"/>
<path d="M5946 4313 c-28 -4 -28 -5 -7 -19 19 -14 21 -25 21 -115 l0 -100 43
3 42 3 3 93 c3 89 2 93 -24 117 -15 14 -32 24 -38 24 -6 -1 -24 -4 -40 -6z"/>
<path d="M7285 4298 c-11 -42 -1 -191 13 -196 9 -3 12 23 12 107 0 66 -4 111
-10 111 -5 0 -12 -10 -15 -22z"/>
<path d="M7350 4216 c0 -59 4 -108 10 -111 6 -4 10 33 10 104 0 67 -4 111 -10
111 -6 0 -10 -41 -10 -104z"/>
<path d="M1740 4231 c0 -47 4 -81 10 -81 6 0 10 31 10 74 0 41 -4 78 -10 81
-6 4 -10 -23 -10 -74z"/>
<path d="M7166 4303 c-10 -10 -7 -581 3 -587 18 -12 21 31 21 304 0 253 -4
303 -24 283z"/>
<path d="M7225 4297 c-3 -7 -4 -138 -3 -291 2 -213 6 -280 16 -284 9 -3 12 60
12 292 0 197 -3 296 -10 296 -6 0 -13 -6 -15 -13z"/>
<path d="M5808 4277 c19 -21 22 -35 22 -118 l0 -95 40 4 40 4 0 98 c0 91 -2
100 -22 114 -12 9 -40 16 -62 16 l-39 0 21 -23z"/>
<path d="M7041 4286 c-17 -20 -11 -578 7 -584 9 -3 12 61 12 297 0 166 -2 301
-4 301 -2 0 -9 -6 -15 -14z"/>
<path d="M7100 4005 c0 -190 4 -295 10 -295 6 0 10 105 10 295 0 190 -4 295
-10 295 -6 0 -10 -105 -10 -295z"/>
<path d="M5668 4267 c20 -21 22 -34 22 -121 l0 -98 31 6 c17 3 35 6 40 6 5 0
9 45 9 99 0 92 -2 101 -22 115 -12 9 -40 16 -62 16 l-39 0 21 -23z"/>
<path d="M6977 4283 c-4 -3 -7 -136 -7 -295 0 -249 2 -288 15 -288 13 0 15 39
15 295 0 162 -4 295 -8 295 -5 0 -12 -3 -15 -7z"/>
<path d="M1770 4201 c0 -47 4 -81 10 -81 6 0 10 31 10 74 0 41 -4 78 -10 81
-6 4 -10 -23 -10 -74z"/>
<path d="M5527 4273 c-18 -5 -18 -6 2 -19 19 -14 21 -25 21 -115 l0 -100 43 3
42 3 3 93 c3 89 2 93 -24 117 -26 24 -47 28 -87 18z"/>
<path d="M6857 4273 c-11 -11 -8 -581 3 -588 7 -4 10 97 10 294 0 166 -1 301
-3 301 -2 0 -7 -3 -10 -7z"/>
<path d="M6910 3985 c0 -256 2 -295 15 -295 13 0 15 39 15 295 0 256 -2 295
-15 295 -13 0 -15 -39 -15 -295z"/>
<path d="M4188 4263 c6 -2 18 -2 25 0 6 3 1 5 -13 5 -14 0 -19 -2 -12 -5z"/>
<path d="M5402 4263 l-33 -4 22 -18 c20 -16 22 -27 22 -114 l0 -97 43 0 44 0
0 95 c0 91 -1 97 -26 120 -15 14 -30 24 -33 23 -3 0 -21 -3 -39 -5z"/>
<path d="M6790 3975 c0 -190 4 -295 10 -295 6 0 10 105 10 295 0 190 -4 295
-10 295 -6 0 -10 -105 -10 -295z"/>
<path d="M1800 4183 c0 -49 4 -83 10 -83 13 0 13 130 0 150 -7 10 -10 -11 -10
-67z"/>
<path d="M6667 4254 c-4 -4 -7 -137 -7 -296 0 -227 3 -289 13 -286 9 4 13 72
15 288 2 259 -2 313 -21 294z"/>
<path d="M6725 4247 c-3 -7 -4 -138 -3 -291 2 -213 6 -280 16 -284 9 -3 12 60
12 292 0 197 -3 296 -10 296 -6 0 -13 -6 -15 -13z"/>
<path d="M5258 4227 c20 -21 22 -34 22 -121 0 -97 0 -98 23 -92 12 3 30 6 40
6 15 0 17 11 17 95 0 84 -2 96 -22 115 -14 13 -35 20 -62 20 l-39 0 21 -23z"/>
<path d="M6600 3955 c0 -190 4 -295 10 -295 6 0 10 105 10 295 0 190 -4 295
-10 295 -6 0 -10 -105 -10 -295z"/>
<path d="M5107 4233 c-4 -3 2 -12 13 -20 18 -13 20 -26 20 -114 0 -98 0 -99
24 -99 53 0 56 5 56 110 0 93 -1 99 -25 114 -24 16 -76 22 -88 9z"/>
<path d="M1460 4211 c0 -11 5 -23 10 -26 6 -3 10 3 10 14 0 11 -4 23 -10 26
-5 3 -10 -3 -10 -14z"/>
<path d="M1830 4150 c0 -52 4 -79 10 -75 6 3 10 37 10 75 0 38 -4 72 -10 75
-6 4 -10 -23 -10 -75z"/>
<path d="M4982 4222 l-23 -7 21 -17 c17 -16 20 -30 20 -113 l0 -95 40 0 40 0
0 98 c0 90 -2 100 -23 120 -24 23 -36 25 -75 14z"/>
<path d="M1863 4130 c0 -47 2 -66 4 -42 2 23 2 61 0 85 -2 23 -4 4 -4 -43z"/>
<path d="M4838 4187 c20 -21 22 -34 22 -121 0 -85 2 -97 16 -92 9 3 27 6 40 6
24 0 24 1 24 98 0 116 -10 132 -80 132 l-43 0 21 -23z"/>
<path d="M4698 4177 c19 -21 22 -34 22 -120 0 -104 -1 -103 56 -91 l29 6 0 93
c0 114 -13 135 -83 135 l-45 0 21 -23z"/>
<path d="M4552 4183 c-10 -4 -8 -9 7 -20 19 -13 21 -24 21 -114 l0 -100 43 3
42 3 0 98 c0 93 -1 99 -25 117 -24 19 -61 24 -88 13z"/>
<path d="M1893 4100 c0 -47 2 -66 4 -42 2 23 2 61 0 85 -2 23 -4 4 -4 -43z"/>
<path d="M4432 4171 c-33 -6 -33 -6 -12 -23 18 -16 20 -29 20 -119 0 -100 0
-101 23 -95 12 3 32 6 43 6 21 0 22 4 20 99 -1 92 -3 101 -26 120 -14 11 -27
20 -30 19 -3 0 -20 -3 -38 -7z"/>
<path d="M1923 4080 c0 -47 2 -66 4 -42 2 23 2 61 0 85 -2 23 -4 4 -4 -43z"/>
<path d="M4220 4151 c0 -5 16 -18 35 -29 l34 -21 3 -88 3 -88 30 -3 c49 -4 55
6 57 105 4 119 -7 133 -99 133 -34 0 -63 -4 -63 -9z"/>
<path d="M1450 3951 c0 -47 4 -81 10 -81 6 0 10 31 10 74 0 41 -4 78 -10 81
-6 4 -10 -23 -10 -74z"/>
<path d="M3136 4019 c-38 -4 -71 -11 -75 -16 -3 -4 -5 -180 -3 -390 2 -290 5
-382 15 -385 22 -7 152 7 140 15 -20 13 -18 221 2 237 22 18 22 302 0 344 -21
40 -20 169 1 190 11 12 12 16 2 15 -7 -1 -44 -5 -82 -10z m24 -683 c0 -46 -19
-72 -45 -62 -10 4 -15 19 -15 49 0 50 4 57 37 57 21 0 23 -5 23 -44z"/>
<path d="M4130 3720 c0 -193 4 -300 10 -300 6 0 10 107 10 300 0 193 -4 300
-10 300 -6 0 -10 -107 -10 -300z"/>
<path d="M3997 4003 c-4 -3 -7 -30 -7 -60 0 -40 4 -53 15 -53 12 0 15 13 15
60 0 55 -6 70 -23 53z"/>
<path d="M4062 3955 c2 -30 8 -55 13 -55 6 0 11 25 13 55 2 45 0 55 -13 55
-13 0 -15 -10 -13 -55z"/>
<path d="M1480 3921 c0 -47 4 -81 10 -81 6 0 10 31 10 74 0 41 -4 78 -10 81
-6 4 -10 -23 -10 -74z"/>
<path d="M3864 3986 c-9 -25 1 -109 14 -114 9 -3 12 14 12 62 0 61 -13 87 -26
52z"/>
<path d="M3930 3941 c0 -34 4 -61 10 -61 24 0 26 110 3 118 -10 3 -13 -13 -13
-57z"/>
<path d="M3736 3983 c-3 -3 -6 -33 -6 -65 0 -45 3 -58 15 -58 12 0 15 13 15
59 0 56 -9 79 -24 64z"/>
<path d="M3794 3976 c-9 -24 1 -99 14 -104 9 -3 12 13 12 57 0 57 -13 81 -26
47z"/>
<path d="M1513 3900 c0 -47 2 -66 4 -42 2 23 2 61 0 85 -2 23 -4 4 -4 -43z"/>
<path d="M3664 3966 c-9 -25 1 -109 14 -114 9 -3 12 14 12 62 0 61 -13 87 -26
52z"/>
<path d="M3536 3963 c-3 -3 -6 -33 -6 -65 0 -45 3 -58 15 -58 12 0 15 13 15
59 0 56 -9 79 -24 64z"/>
<path d="M3594 3956 c-9 -24 1 -99 14 -104 9 -3 12 13 12 57 0 57 -13 81 -26
47z"/>
<path d="M3464 3946 c-9 -22 0 -111 11 -111 6 0 11 28 13 63 2 39 -1 62 -8 62
-6 0 -13 -6 -16 -14z"/>
<path d="M1543 3870 c0 -47 2 -66 4 -42 2 23 2 61 0 85 -2 23 -4 4 -4 -43z"/>
<path d="M3400 3890 c0 -33 4 -60 10 -60 6 0 10 27 10 60 0 33 -4 60 -10 60
-6 0 -10 -27 -10 -60z"/>
<path d="M7285 3928 c-11 -42 -1 -191 13 -196 9 -3 12 23 12 107 0 66 -4 111
-10 111 -5 0 -12 -10 -15 -22z"/>
<path d="M7350 3846 c0 -59 4 -108 10 -111 6 -4 10 33 10 104 0 67 -4 111 -10
111 -6 0 -10 -41 -10 -104z"/>
<path d="M1573 3850 c0 -47 2 -66 4 -42 2 23 2 61 0 85 -2 23 -4 4 -4 -43z"/>
<path d="M1603 3820 c0 -47 2 -66 4 -42 2 23 2 61 0 85 -2 23 -4 4 -4 -43z"/>
<path d="M1627 3873 c-11 -10 -8 -141 3 -148 6 -4 10 23 10 74 0 81 -1 87 -13
74z"/>
<path d="M1650 3776 c0 -41 5 -78 10 -81 6 -4 10 23 10 74 0 47 -4 81 -10 81
-6 0 -10 -31 -10 -74z"/>
<path d="M3976 3839 c-43 -5 -81 -11 -84 -14 -3 -3 28 -6 69 -6 l74 -2 -60
-13 -60 -13 58 4 c60 5 82 -11 25 -18 l-33 -4 33 -1 c39 -2 43 -19 5 -25 l-28
-4 28 -2 c15 0 27 -5 27 -10 0 -5 -12 -12 -27 -14 l-28 -4 30 -2 c23 -1 27 -3
15 -11 -10 -6 -11 -10 -2 -10 18 0 15 -18 -5 -23 -17 -4 -17 -5 0 -6 9 0 17
-5 17 -10 0 -5 -8 -12 -17 -14 -16 -4 -16 -5 1 -6 14 -1 17 -7 14 -31 -5 -31
11 -40 40 -22 16 10 13 264 -3 267 -5 1 -45 -2 -89 -6z"/>
<path d="M1680 3756 c0 -41 5 -78 10 -81 6 -4 10 21 10 69 0 41 -4 78 -10 81
-6 4 -10 -21 -10 -69z"/>
<path d="M3540 3798 c-58 -4 -111 -10 -117 -13 -10 -3 -13 -39 -13 -134 0 -71
3 -132 8 -134 4 -3 81 2 172 12 l165 16 1 28 c1 25 1 25 -3 2 -8 -46 -23 -26
-23 30 0 32 -4 55 -11 55 -5 0 -7 5 -4 10 3 6 1 10 -4 10 -7 0 -11 -26 -11
-64 l0 -64 -64 -7 c-36 -4 -69 -4 -75 -1 -5 4 -12 2 -16 -4 -3 -5 -13 -10 -21
-10 -10 0 -14 13 -14 49 0 47 2 50 28 53 l27 3 -27 26 c-32 30 -35 39 -13 39
8 0 15 -7 15 -15 0 -8 5 -15 10 -15 6 0 10 25 10 55 0 30 3 55 8 56 46 4 78
11 86 19 6 6 6 9 1 9 -6 -1 -57 -6 -115 -11z m7 -43 c-2 -14 -6 -25 -10 -25
-4 0 -10 0 -14 0 -5 0 -9 11 -9 25 -2 19 3 25 17 25 15 0 19 -6 16 -25z m-62
-25 c3 -5 1 -10 -4 -10 -6 0 -11 5 -11 10 0 6 2 10 4 10 3 0 8 -4 11 -10z m15
-175 c0 -18 -5 -25 -20 -25 -15 0 -20 7 -20 25 0 18 5 25 20 25 15 0 20 -7 20
-25z"/>
<path d="M1710 3726 c0 -41 5 -78 10 -81 6 -4 10 23 10 74 0 47 -4 81 -10 81
-6 0 -10 -31 -10 -74z"/>
<path d="M1740 3701 c0 -47 4 -81 10 -81 6 0 10 31 10 74 0 41 -4 78 -10 81
-6 4 -10 -23 -10 -74z"/>
<path d="M3603 3695 c0 -44 2 -61 4 -37 2 23 2 59 0 80 -2 20 -4 1 -4 -43z"/>
<path d="M6255 3744 c-227 -23 -346 -35 -505 -49 -158 -15 -228 -22 -290 -30
-19 -3 -93 -10 -165 -15 -71 -6 -141 -13 -155 -15 -35 -5 -111 -13 -200 -20
-41 -3 -109 -10 -150 -15 -64 -8 -230 -21 -280 -22 -8 0 -53 -5 -100 -10 -112
-12 -120 -19 -120 -120 l0 -78 29 0 c24 0 28 3 24 20 -4 16 0 20 21 20 25 0
26 3 26 49 0 62 7 81 31 81 16 0 19 -10 21 -72 3 -67 5 -73 25 -76 17 -3 21 1
17 12 -4 10 2 15 18 18 20 3 23 9 26 48 4 72 10 90 32 90 18 0 20 -7 20 -64 0
-77 6 -96 31 -96 12 0 16 5 13 15 -4 9 3 16 20 21 23 6 26 11 26 54 0 61 7 80
31 80 17 0 19 -8 19 -67 0 -72 6 -87 31 -89 11 -1 15 5 12 17 -4 15 0 19 21
19 25 0 26 3 26 49 0 62 7 81 31 81 17 0 19 -8 19 -75 0 -74 0 -75 26 -75 22
0 24 3 15 14 -10 12 -7 15 16 18 26 3 28 7 31 48 4 72 10 90 32 90 18 0 20 -7
20 -80 0 -79 0 -80 24 -78 17 2 22 6 16 14 -12 13 -3 24 20 24 13 0 19 15 26
63 8 53 12 62 32 65 21 3 22 0 22 -72 0 -69 2 -76 20 -76 13 0 18 5 14 15 -5
11 1 15 20 15 23 0 26 4 26 34 0 58 11 94 30 99 24 6 30 -11 30 -89 0 -57 2
-64 20 -64 12 0 17 5 14 14 -3 8 4 16 20 20 23 6 26 12 26 49 0 60 10 87 30
87 15 0 20 -12 25 -67 8 -86 11 -94 29 -87 8 3 12 12 9 20 -4 10 3 14 21 14
24 0 26 3 26 43 0 61 9 87 31 87 16 0 19 -8 19 -52 0 -73 8 -98 32 -98 17 0
18 3 9 14 -10 12 -7 15 16 18 26 3 28 7 33 58 6 61 14 80 36 80 11 0 14 -16
15 -65 2 -89 2 -90 19 -90 8 0 14 6 13 12 -2 7 8 15 21 19 20 5 24 13 29 61 6
61 17 79 41 70 13 -5 16 -22 16 -80 0 -66 2 -73 20 -73 15 0 18 5 14 18 -4 14
0 18 20 18 24 0 26 3 26 49 0 62 7 81 31 81 16 0 19 -8 21 -47 0 -27 2 -52 3
-58 2 -5 3 -18 4 -27 1 -11 9 -18 22 -18 17 0 19 3 10 14 -10 12 -7 15 16 18
26 3 28 6 33 61 5 53 18 76 43 77 4 0 7 -28 8 -62 1 -73 7 -92 32 -94 13 -2
15 1 7 10 -12 15 -3 26 22 26 14 0 18 8 18 39 0 50 15 91 34 91 18 0 26 -31
26 -102 0 -50 2 -56 19 -51 12 3 17 11 14 19 -4 10 3 14 21 14 24 0 26 3 26
49 0 62 7 81 31 81 16 0 19 -10 21 -72 3 -62 6 -73 21 -72 9 1 31 2 47 3 l31
1 -3 83 -3 82 -40 1 c-22 1 -98 -4 -170 -12z m162 -140 c-3 -3 -12 -4 -19 -1
-8 3 -5 6 6 6 11 1 17 -2 13 -5z"/>
<path d="M1770 3671 c0 -47 4 -81 10 -81 6 0 10 31 10 74 0 41 -4 78 -10 81
-6 4 -10 -23 -10 -74z"/>
<path d="M1550 3717 c14 -12 50 -42 80 -67 30 -25 57 -47 60 -51 3 -3 48 -41
100 -85 52 -43 100 -83 106 -89 6 -5 35 -30 64 -55 29 -25 73 -63 98 -85 25
-22 54 -47 67 -55 12 -8 39 -31 61 -52 21 -20 73 -64 114 -99 41 -34 80 -67
86 -74 6 -6 31 -27 54 -46 55 -44 263 -221 270 -229 3 -4 32 -28 65 -55 32
-26 64 -53 70 -59 6 -6 33 -29 60 -51 27 -22 56 -47 65 -55 9 -8 29 -26 43
-39 15 -14 27 -20 27 -14 0 6 -109 105 -242 220 -1009 868 -1239 1063 -1255
1063 -15 0 -14 -4 7 -23z"/>
<path d="M1800 3653 c0 -49 4 -83 10 -83 13 0 13 130 0 150 -7 10 -10 -11 -10
-67z"/>
<path d="M1830 3622 c0 -53 4 -81 10 -77 13 8 13 125 0 145 -7 10 -10 -11 -10
-68z"/>
<path d="M1863 3600 c0 -47 2 -66 4 -42 2 23 2 61 0 85 -2 23 -4 4 -4 -43z"/>
<path d="M1450 3581 c0 -47 4 -81 10 -81 6 0 10 31 10 74 0 41 -4 78 -10 81
-6 4 -10 -23 -10 -74z"/>
<path d="M1893 3570 c0 -47 2 -66 4 -42 2 23 2 61 0 85 -2 23 -4 4 -4 -43z"/>
<path d="M1480 3551 c0 -47 4 -81 10 -81 6 0 10 31 10 74 0 41 -4 78 -10 81
-6 4 -10 -23 -10 -74z"/>
<path d="M1924 3545 c0 -49 1 -71 3 -48 2 23 2 64 0 90 -2 26 -3 8 -3 -42z"/>
<path d="M3552 3590 c0 -19 2 -27 5 -17 2 9 2 25 0 35 -3 9 -5 1 -5 -18z"/>
<path d="M1510 3533 c0 -49 4 -83 10 -83 13 0 13 130 0 150 -7 10 -10 -11 -10
-67z"/>
<path d="M1543 3500 c0 -47 2 -66 4 -42 2 23 2 61 0 85 -2 23 -4 4 -4 -43z"/>
<path d="M1574 3475 c0 -49 1 -71 3 -48 2 23 2 64 0 90 -2 26 -3 8 -3 -42z"/>
<path d="M6198 3543 c6 -2 18 -2 25 0 6 3 1 5 -13 5 -14 0 -19 -2 -12 -5z"/>
<path d="M6068 3533 c7 -3 16 -2 19 1 4 3 -2 6 -13 5 -11 0 -14 -3 -6 -6z"/>
<path d="M1603 3450 c0 -47 2 -66 4 -42 2 23 2 61 0 85 -2 23 -4 4 -4 -43z"/>
<path d="M4001 3516 c-16 -18 -10 -108 7 -114 9 -3 12 14 12 62 0 36 -2 66 -4
66 -2 0 -9 -6 -15 -14z"/>
<path d="M4060 3469 c0 -81 24 -77 28 4 2 46 0 57 -13 57 -12 0 -15 -13 -15
-61z"/>
<path d="M7502 3523 c-18 -3 -21 -8 -12 -18 7 -9 10 -126 8 -375 l-3 -362 58
6 c32 3 63 8 68 12 5 3 9 50 9 104 0 55 4 102 10 105 13 8 13 318 0 331 -5 5
-10 52 -12 104 l-3 95 -50 1 c-27 1 -60 0 -73 -3z m92 -619 c13 -33 6 -64 -19
-80 -13 -8 -29 -13 -35 -9 -11 7 -14 88 -3 98 12 13 51 7 57 -9z"/>
<path d="M2295 3510 c-3 -5 -1 -18 4 -27 9 -16 10 -14 11 10 0 28 -5 34 -15
17z"/>
<path d="M3930 3461 c0 -62 13 -88 24 -48 12 47 4 107 -15 107 -5 0 -9 -27 -9
-59z"/>
<path d="M1634 3425 c0 -49 1 -71 3 -48 2 23 2 64 0 90 -2 26 -3 8 -3 -42z"/>
<path d="M3794 3487 c-8 -36 -1 -100 14 -105 9 -3 12 14 12 62 0 65 -14 88
-26 43z"/>
<path d="M3860 3450 c0 -47 3 -60 15 -60 12 0 15 13 15 60 0 47 -3 60 -15 60
-12 0 -15 -13 -15 -60z"/>
<path d="M5788 3503 c6 -2 18 -2 25 0 6 3 1 5 -13 5 -14 0 -19 -2 -12 -5z"/>
<path d="M3730 3441 c0 -59 12 -86 24 -55 3 9 6 38 6 65 0 37 -4 49 -15 49
-12 0 -15 -13 -15 -59z"/>
<path d="M5668 3493 c7 -3 16 -2 19 1 4 3 -2 6 -13 5 -11 0 -14 -3 -6 -6z"/>
<path d="M3594 3467 c-8 -36 -1 -100 14 -105 9 -3 12 14 12 62 0 65 -14 88
-26 43z"/>
<path d="M3660 3430 c0 -47 3 -60 15 -60 12 0 15 13 15 60 0 47 -3 60 -15 60
-12 0 -15 -13 -15 -60z"/>
<path d="M1650 3406 c0 -41 5 -78 10 -81 6 -4 10 23 10 74 0 47 -4 81 -10 81
-6 0 -10 -31 -10 -74z"/>
<path d="M3530 3421 c0 -59 12 -86 24 -55 3 9 6 38 6 65 0 37 -4 49 -15 49
-12 0 -15 -13 -15 -59z"/>
<path d="M5518 3473 c7 -3 16 -2 19 1 4 3 -2 6 -13 5 -11 0 -14 -3 -6 -6z"/>
<path d="M3399 3463 c0 -5 -2 -26 -4 -48 -5 -44 1 -75 16 -75 5 0 9 29 9 65 0
37 -4 65 -10 65 -5 0 -10 -3 -11 -7z"/>
<path d="M3464 3456 c-9 -24 1 -99 14 -104 9 -3 12 13 12 57 0 57 -13 81 -26
47z"/>
<path d="M5378 3463 c6 -2 18 -2 25 0 6 3 1 5 -13 5 -14 0 -19 -2 -12 -5z"/>
<path d="M1680 3376 c0 -41 5 -78 10 -81 6 -4 10 23 10 74 0 47 -4 81 -10 81
-6 0 -10 -31 -10 -74z"/>
<path d="M6351 3443 l-23 -5 21 -14 c19 -14 21 -25 21 -115 l0 -99 34 0 c18 0
38 6 44 13 5 6 12 50 14 95 2 64 7 87 20 96 15 11 15 13 -3 24 -18 12 -80 14
-128 5z"/>
<path d="M5098 3433 c6 -2 18 -2 25 0 6 3 1 5 -13 5 -14 0 -19 -2 -12 -5z"/>
<path d="M1710 3356 c0 -41 5 -78 10 -81 6 -4 10 23 10 74 0 47 -4 81 -10 81
-6 0 -10 -31 -10 -74z"/>
<path d="M4963 3423 c9 -2 23 -2 30 0 6 3 -1 5 -18 5 -16 0 -22 -2 -12 -5z"/>
<path d="M6214 3409 c26 -21 27 -24 25 -118 -1 -53 1 -95 5 -93 3 1 22 2 41 2
l35 0 0 95 c0 114 -14 135 -88 135 l-45 0 27 -21z"/>
<path d="M7357 3423 c-11 -10 -8 -211 3 -218 6 -4 10 35 10 109 0 64 -1 116
-3 116 -2 0 -7 -3 -10 -7z"/>
<path d="M6072 3413 c-10 -4 -8 -9 7 -20 19 -13 21 -24 21 -114 0 -107 1 -108
58 -93 21 6 22 11 22 104 0 93 -1 99 -25 114 -24 16 -57 19 -83 9z"/>
<path d="M7285 3398 c-11 -42 -1 -191 13 -196 9 -3 12 23 12 107 0 66 -4 111
-10 111 -5 0 -12 -10 -15 -22z"/>
<path d="M1740 3331 c0 -44 5 -83 10 -86 6 -4 10 23 10 74 0 44 -4 83 -10 86
-6 4 -10 -23 -10 -74z"/>
<path d="M5952 3403 c-32 -4 -32 -4 -12 -21 19 -15 21 -28 21 -115 l1 -98 41
3 42 3 3 93 c3 89 2 93 -24 117 -15 14 -30 24 -33 23 -3 0 -21 -3 -39 -5z"/>
<path d="M7166 3403 c-10 -10 -7 -581 3 -587 18 -12 21 31 21 304 0 253 -4
303 -24 283z"/>
<path d="M7225 3397 c-3 -7 -4 -138 -3 -291 2 -213 6 -280 16 -284 9 -3 12 60
12 292 0 197 -3 296 -10 296 -6 0 -13 -6 -15 -13z"/>
<path d="M4688 3393 c6 -2 18 -2 25 0 6 3 1 5 -13 5 -14 0 -19 -2 -12 -5z"/>
<path d="M7100 3105 c0 -190 4 -295 10 -295 6 0 10 105 10 295 0 190 -4 295
-10 295 -6 0 -10 -105 -10 -295z"/>
<path d="M4536 3381 c-3 -4 6 -6 19 -3 14 2 25 6 25 8 0 8 -39 4 -44 -5z"/>
<path d="M5790 3382 c0 -4 9 -13 20 -20 18 -11 20 -23 20 -113 0 -100 0 -101
23 -95 12 3 30 6 40 6 15 0 17 11 17 95 0 84 -2 96 -22 115 -21 19 -98 29 -98
12z"/>
<path d="M6975 3377 c-3 -7 -4 -140 -3 -296 2 -217 6 -285 16 -289 9 -3 12 61
12 297 0 200 -3 301 -10 301 -6 0 -13 -6 -15 -13z"/>
<path d="M7035 3377 c-3 -7 -4 -138 -3 -291 2 -213 6 -280 16 -284 9 -3 12 60
12 292 0 197 -3 296 -10 296 -6 0 -13 -6 -15 -13z"/>
<path d="M1770 3301 c0 -47 4 -81 10 -81 6 0 10 31 10 74 0 41 -4 78 -10 81
-6 4 -10 -23 -10 -74z"/>
<path d="M4415 3370 c-16 -7 -17 -9 -3 -9 9 -1 20 4 23 9 7 11 7 11 -20 0z"/>
<path d="M5667 3373 c-18 -5 -18 -6 2 -19 19 -14 21 -25 21 -115 l0 -100 38 3
37 3 3 100 c3 93 1 100 -20 117 -23 17 -45 20 -81 11z"/>
<path d="M6917 3373 c-4 -3 -7 -136 -7 -295 0 -249 2 -288 15 -288 13 0 15 39
15 295 0 162 -4 295 -8 295 -5 0 -12 -3 -15 -7z"/>
<path d="M6797 3363 c-12 -11 -8 -583 3 -583 6 0 10 105 10 295 0 162 -1 295
-3 295 -2 0 -7 -3 -10 -7z"/>
<path d="M6850 3075 c0 -190 4 -295 10 -295 6 0 10 105 10 295 0 190 -4 295
-10 295 -6 0 -10 -105 -10 -295z"/>
<path d="M1800 3283 c0 -45 5 -85 10 -88 13 -8 13 135 0 155 -7 10 -10 -10
-10 -67z"/>
<path d="M5528 3343 c20 -14 22 -23 22 -120 0 -92 2 -104 16 -99 9 3 29 6 45
6 l29 0 0 95 c0 84 -2 96 -22 115 -16 14 -35 20 -67 19 -45 0 -45 0 -23 -16z"/>
<path d="M6725 3347 c-3 -7 -4 -138 -3 -291 2 -213 6 -280 16 -284 9 -3 12 60
12 292 0 197 -3 296 -10 296 -6 0 -13 -6 -15 -13z"/>
<path d="M5380 3340 c0 -5 7 -13 16 -18 13 -7 16 -28 16 -111 0 -110 1 -112
66 -95 21 6 22 11 22 98 0 84 -2 95 -23 114 -24 22 -97 32 -97 12z"/>
<path d="M6607 3343 c-12 -11 -8 -583 3 -583 6 0 10 105 10 295 0 162 -1 295
-3 295 -2 0 -7 -3 -10 -7z"/>
<path d="M6660 3061 c0 -261 6 -332 24 -285 3 9 6 141 6 295 0 241 -2 279 -15
279 -13 0 -15 -39 -15 -289z"/>
<path d="M4148 3333 c7 -3 16 -2 19 1 4 3 -2 6 -13 5 -11 0 -14 -3 -6 -6z"/>
<path d="M5267 3331 c-28 -6 -28 -6 -7 -23 17 -16 20 -29 20 -113 l0 -95 40 0
40 0 0 99 c0 96 -1 100 -26 120 -15 12 -29 20 -33 20 -3 -1 -19 -4 -34 -8z"/>
<path d="M1460 3311 c0 -11 5 -23 10 -26 6 -3 10 3 10 14 0 11 -4 23 -10 26
-5 3 -10 -3 -10 -14z"/>
<path d="M1830 3251 c0 -47 4 -81 10 -81 6 0 10 31 10 74 0 41 -4 78 -10 81
-6 4 -10 -23 -10 -74z"/>
<path d="M5118 3297 c20 -21 22 -34 22 -121 0 -97 0 -98 23 -92 12 3 30 6 40
6 15 0 17 11 17 99 0 92 -2 101 -22 115 -12 9 -40 16 -62 16 l-39 0 21 -23z"/>
<path d="M4975 3301 c-19 -8 -19 -8 3 -20 20 -11 22 -19 22 -111 l0 -100 40 0
40 0 0 104 c0 99 -1 104 -25 120 -26 17 -48 19 -80 7z"/>
<path d="M1860 3222 c0 -53 4 -81 10 -77 13 8 13 125 0 145 -7 10 -10 -11 -10
-68z"/>
<path d="M4838 3267 c20 -21 22 -34 22 -121 0 -97 0 -98 23 -92 12 3 30 6 40
6 15 0 17 11 17 98 0 116 -10 132 -80 132 l-43 0 21 -23z"/>
<path d="M1893 3200 c0 -47 2 -66 4 -42 2 23 2 61 0 85 -2 23 -4 4 -4 -43z"/>
<path d="M4687 3273 c-4 -3 2 -12 13 -20 18 -13 20 -26 20 -114 l0 -99 33 0
c17 0 37 4 42 8 6 4 10 48 10 100 0 86 -2 95 -24 113 -22 18 -81 26 -94 12z"/>
<path d="M4566 3263 c-28 -4 -28 -5 -7 -19 19 -14 21 -25 21 -119 l0 -104 33
5 c60 10 57 6 54 110 -4 88 -6 98 -28 115 -13 10 -28 18 -34 17 -5 0 -23 -3
-39 -5z"/>
<path d="M1923 3170 c0 -47 2 -66 4 -42 2 23 2 61 0 85 -2 23 -4 4 -4 -43z"/>
<path d="M4418 3227 c19 -21 22 -34 22 -120 0 -94 1 -97 23 -97 63 1 65 4 63
105 -1 114 -14 135 -84 135 l-45 0 21 -23z"/>
<path d="M4263 3233 c-24 -2 -43 -8 -43 -12 0 -4 16 -15 35 -24 l35 -17 0 -84
c0 -94 7 -106 58 -99 32 5 32 6 34 67 4 114 0 139 -24 158 -13 10 -30 17 -38
16 -8 -1 -34 -3 -57 -5z"/>
<path d="M1450 3051 c0 -47 4 -81 10 -81 6 0 10 31 10 74 0 41 -4 78 -10 81
-6 4 -10 -23 -10 -74z"/>
<path d="M1480 3031 c0 -47 4 -81 10 -81 6 0 10 31 10 74 0 41 -4 78 -10 81
-6 4 -10 -23 -10 -74z"/>
<path d="M3113 3083 c-23 -2 -45 -9 -50 -16 -4 -7 -7 -184 -5 -394 l2 -383 58
1 c69 1 112 11 94 23 -19 11 -17 213 3 232 22 22 22 296 0 338 -19 35 -21 176
-3 194 13 13 -4 13 -99 5z m45 -667 c6 -50 -6 -76 -34 -76 -23 0 -25 3 -23 43
1 23 7 48 12 55 17 21 42 9 45 -22z"/>
<path d="M4067 3083 c-10 -10 -8 -111 2 -117 13 -9 21 19 21 75 0 46 -7 59
-23 42z"/>
<path d="M4130 2790 c0 -193 4 -300 10 -300 6 0 10 107 10 300 0 193 -4 300
-10 300 -6 0 -10 -107 -10 -300z"/>
<path d="M1513 3000 c0 -47 2 -66 4 -42 2 23 2 61 0 85 -2 23 -4 4 -4 -43z"/>
<path d="M3937 3073 c-10 -10 -8 -123 2 -123 18 0 29 93 13 118 -5 7 -11 9
-15 5z"/>
<path d="M3994 3066 c-9 -24 1 -99 14 -104 9 -3 12 13 12 57 0 57 -13 81 -26
47z"/>
<path d="M3864 3056 c-9 -22 0 -111 11 -111 6 0 11 28 13 63 2 39 -1 62 -8 62
-6 0 -13 -6 -16 -14z"/>
<path d="M1544 2975 c0 -49 1 -71 3 -48 2 23 2 64 0 90 -2 26 -3 8 -3 -42z"/>
<path d="M3736 3053 c-3 -3 -6 -33 -6 -65 0 -45 3 -58 15 -58 12 0 15 13 15
59 0 56 -9 79 -24 64z"/>
<path d="M3794 3046 c-9 -24 1 -99 14 -104 9 -3 12 13 12 57 0 57 -13 81 -26
47z"/>
<path d="M3664 3036 c-9 -25 1 -109 14 -114 9 -3 12 14 12 62 0 61 -13 87 -26
52z"/>
<path d="M7285 3028 c-11 -42 -1 -191 13 -196 9 -3 12 23 12 107 0 66 -4 111
-10 111 -5 0 -12 -10 -15 -22z"/>
<path d="M7350 2946 c0 -59 4 -108 10 -111 6 -4 10 33 10 104 0 67 -4 111 -10
111 -6 0 -10 -41 -10 -104z"/>
<path d="M3594 3016 c-8 -35 -1 -89 14 -94 9 -3 12 13 12 57 0 61 -14 82 -26
37z"/>
<path d="M1573 2950 c0 -47 2 -66 4 -42 2 23 2 61 0 85 -2 23 -4 4 -4 -43z"/>
<path d="M3464 3016 c-9 -25 1 -109 14 -114 9 -3 12 14 12 62 0 61 -13 87 -26
52z"/>
<path d="M3530 2970 c0 -47 3 -60 15 -60 12 0 15 13 15 60 0 47 -3 60 -15 60
-12 0 -15 -13 -15 -60z"/>
<path d="M3397 2969 c-7 -53 -3 -69 14 -69 5 0 9 27 9 60 0 73 -15 79 -23 9z"/>
<path d="M1603 2920 c0 -47 2 -66 4 -42 2 23 2 61 0 85 -2 23 -4 4 -4 -43z"/>
<path d="M1628 2913 c-3 -38 -1 -75 3 -83 5 -9 9 19 9 68 0 45 -2 82 -4 82 -2
0 -6 -30 -8 -67z"/>
<path d="M1650 2883 c0 -38 5 -75 10 -83 7 -10 10 11 10 68 0 48 -4 82 -10 82
-6 0 -10 -29 -10 -67z"/>
<path d="M1680 2856 c0 -41 5 -78 10 -81 6 -4 10 21 10 69 0 41 -4 78 -10 81
-6 4 -10 -21 -10 -69z"/>
<path d="M3967 2910 c-82 -11 -85 -23 -4 -18 67 5 96 -7 35 -15 l-33 -4 33 -1
c17 -1 32 -6 32 -12 0 -5 -15 -11 -32 -11 l-33 -2 35 -6 c32 -6 34 -7 15 -18
l-20 -12 20 -1 c17 0 17 -2 5 -10 -10 -6 -11 -10 -2 -10 18 0 15 -18 -5 -23
-17 -4 -17 -5 0 -6 25 -2 21 -19 -5 -24 l-23 -4 23 -2 c26 -1 29 -18 5 -24
-17 -4 -17 -5 0 -6 17 -1 25 -45 10 -54 -5 -2 -2 -2 5 0 8 1 22 3 33 3 18 0
19 9 19 135 l0 135 -27 -1 c-16 -1 -54 -5 -86 -9z"/>
<path d="M1710 2826 c0 -41 5 -78 10 -81 6 -4 10 23 10 74 0 47 -4 81 -10 81
-6 0 -10 -31 -10 -74z"/>
<path d="M1740 2801 c0 -47 4 -81 10 -81 6 0 10 31 10 74 0 41 -4 78 -10 81
-6 4 -10 -23 -10 -74z"/>
<path d="M3535 2865 c-66 -7 -121 -13 -122 -14 -2 0 -3 -62 -3 -136 0 -122 2
-135 18 -135 9 0 82 7 162 16 l145 17 -5 61 c-3 34 -11 70 -17 81 -10 17 -12
7 -13 -56 l0 -76 -37 -7 c-68 -11 -101 -7 -106 12 -4 13 -5 11 -6 -5 -1 -16
-7 -23 -21 -23 -17 0 -20 7 -20 45 0 39 3 45 25 51 18 4 25 12 24 28 -1 11 -1
45 -1 74 2 44 5 52 22 52 17 0 20 -8 23 -82 l3 -83 2 88 c2 85 3 87 26 87 14
0 28 5 31 10 3 6 3 9 -2 9 -4 -1 -62 -7 -128 -14z m10 -62 c-2 -27 -4 -50 -5
-52 0 -2 -7 2 -15 9 -15 12 -21 71 -8 83 3 4 12 7 19 7 10 0 12 -13 9 -47z
m-54 28 c-9 -6 -10 -11 -2 -15 6 -4 11 -12 11 -18 0 -6 -9 -3 -20 7 -22 20
-18 35 8 35 13 0 14 -2 3 -9z m9 -206 c0 -18 -5 -25 -20 -25 -35 0 -24 45 13
49 4 1 7 -10 7 -24z"/>
<path d="M3938 2863 c7 -3 16 -2 19 1 4 3 -2 6 -13 5 -11 0 -14 -3 -6 -6z"/>
<path d="M1770 2771 c0 -47 4 -81 10 -81 6 0 10 31 10 74 0 41 -4 78 -10 81
-6 4 -10 -23 -10 -74z"/>
<path d="M6240 2835 c-119 -14 -373 -42 -470 -51 -30 -3 -66 -7 -80 -9 -14 -2
-95 -11 -180 -20 -85 -8 -216 -22 -290 -30 -363 -40 -488 -52 -610 -60 -41 -3
-88 -8 -105 -12 -16 -3 -48 -7 -70 -9 -146 -12 -145 -11 -145 -124 0 -100 -8
-113 -61 -104 -27 4 -31 3 -19 -6 12 -9 4 -11 -37 -7 -29 2 -50 1 -48 -3 2 -4
-26 -10 -63 -13 -165 -16 -752 -81 -749 -84 8 -7 58 -5 167 6 176 18 386 41
475 52 44 5 130 14 190 19 61 6 137 14 170 20 33 5 96 12 140 15 44 4 107 10
140 15 33 5 89 11 125 15 69 6 182 18 190 20 6 2 135 14 200 20 25 2 81 8 125
14 44 6 206 25 360 41 376 40 385 41 438 45 26 2 55 6 65 9 9 3 51 8 92 11 41
3 127 12 190 20 63 7 144 16 180 19 36 3 76 8 89 11 14 2 56 7 95 10 39 3 107
10 151 14 44 5 152 17 240 26 88 9 164 21 170 26 12 12 44 15 -410 -35 -271
-30 -404 -41 -412 -34 -7 6 -13 44 -15 96 l-3 87 -55 2 c-30 0 -107 -5 -170
-12z m130 -70 c0 -45 4 -65 13 -66 10 0 10 -2 0 -6 -7 -2 -13 -10 -13 -17 0
-22 -52 -34 -77 -18 -30 19 -29 32 2 32 24 0 25 3 25 54 0 52 16 86 41 86 5 0
9 -29 9 -65z m-135 22 c4 -13 5 -49 3 -82 -3 -56 -5 -59 -33 -67 -20 -5 -36
-3 -53 8 -25 17 -21 34 9 34 16 0 19 7 19 39 0 51 15 91 35 91 8 0 17 -10 20
-23z m-133 -56 c4 -87 1 -101 -22 -101 -10 0 -22 -5 -25 -10 -4 -6 -19 -2 -38
12 l-32 23 30 5 c29 5 30 8 35 63 5 52 18 76 42 77 3 0 8 -31 10 -69z m-139 2
c11 -92 5 -116 -28 -124 -20 -6 -36 -4 -52 7 -30 19 -29 34 2 34 23 0 25 3 25
49 0 61 7 81 30 81 13 0 19 -11 23 -47z m-135 -49 l3 -81 -38 -6 c-30 -5 -42
-2 -58 13 -19 20 -19 20 8 20 24 0 27 4 27 33 0 56 19 109 38 105 14 -3 18
-18 20 -84z m-140 -16 c-3 -81 -3 -82 -33 -89 -21 -6 -34 -4 -47 8 -25 22 -23
33 7 33 23 0 25 3 25 49 0 62 7 81 31 81 18 0 20 -7 17 -82z m-136 7 c1 -36 2
-73 2 -82 1 -23 -52 -37 -81 -21 -13 6 -23 15 -23 19 0 4 10 9 23 11 17 2 23
10 25 38 5 79 12 100 32 100 18 0 20 -8 22 -65z m-137 -8 c11 -85 5 -109 -30
-119 -20 -5 -36 -3 -52 8 -30 19 -29 34 2 34 23 0 25 4 25 43 0 60 10 87 30
87 15 0 20 -11 25 -53z m-141 27 c3 -9 6 -46 6 -84 l0 -67 -37 -6 c-30 -5 -42
-2 -58 13 -19 20 -19 20 6 20 25 0 27 4 32 59 3 33 8 64 12 70 9 16 32 13 39
-5z m-134 -83 l0 -79 -31 -11 c-24 -8 -35 -7 -55 5 -26 18 -24 34 5 34 15 0
19 11 24 55 7 65 12 75 38 75 17 0 19 -7 19 -79z m-140 -15 l0 -83 -37 -6
c-27 -5 -42 -2 -56 11 -19 17 -18 17 9 22 26 5 29 9 32 50 4 72 10 90 32 90
18 0 20 -7 20 -84z m-144 -91 c-7 -20 -59 -25 -78 -8 -25 22 -22 33 7 33 23 0
25 3 25 53 0 56 6 71 30 79 12 4 16 -9 18 -70 2 -41 1 -81 -2 -87z m-136 60
c0 -77 -2 -85 -19 -85 -11 0 -23 -5 -26 -10 -4 -6 -11 -8 -16 -4 -5 3 -6 10
-3 16 4 7 2 8 -5 4 -6 -4 -19 -2 -28 6 -14 12 -13 14 13 18 25 4 29 10 32 40
5 79 12 100 32 100 18 0 20 -7 20 -85z m-140 -9 l0 -84 -32 -11 c-26 -9 -35
-8 -50 5 -25 23 -23 34 7 34 23 0 25 3 25 53 0 63 6 73 48 86 1 1 2 -37 2 -83z
m-140 -21 c0 -77 -2 -85 -19 -85 -11 0 -23 -5 -26 -10 -4 -6 -11 -8 -16 -4 -5
3 -7 9 -4 14 3 4 -3 7 -12 6 -25 -2 -27 22 -1 26 20 3 23 9 24 46 3 67 12 92
34 92 18 0 20 -7 20 -85z"/>
<path d="M1800 2753 c0 -49 4 -83 10 -83 13 0 13 130 0 150 -7 10 -10 -11 -10
-67z"/>
<path d="M1830 2723 c0 -49 4 -83 10 -83 13 0 13 130 0 150 -7 10 -10 -11 -10
-67z"/>
<path d="M3978 2783 c7 -3 16 -2 19 1 4 3 -2 6 -13 5 -11 0 -14 -3 -6 -6z"/>
<path d="M1860 2692 c0 -53 4 -81 10 -77 13 8 13 125 0 145 -7 10 -10 -11 -10
-68z"/>
<path d="M1893 2670 c0 -47 2 -66 4 -42 2 23 2 61 0 85 -2 23 -4 4 -4 -43z"/>
<path d="M3641 2714 c0 -11 3 -14 6 -6 3 7 2 16 -1 19 -3 4 -6 -2 -5 -13z"/>
<path d="M1923 2640 c0 -47 2 -66 4 -42 2 23 2 61 0 85 -2 23 -4 4 -4 -43z"/>
<path d="M3551 2674 c0 -11 3 -14 6 -6 3 7 2 16 -1 19 -3 4 -6 -2 -5 -13z"/>
<path d="M3752 2650 c0 -19 2 -27 5 -17 2 9 2 25 0 35 -3 9 -5 1 -5 -18z"/>
<path d="M7542 2631 l-43 -6 -2 -378 -2 -379 54 7 c85 11 81 5 81 121 0 66 4
104 10 104 8 0 9 53 6 163 -11 340 -16 380 -51 375 -5 0 -29 -4 -53 -7z m48
-620 c23 -44 3 -91 -39 -91 -18 0 -21 6 -21 43 0 62 37 91 60 48z"/>
<path d="M2297 2593 c-3 -5 -1 -17 4 -28 7 -17 8 -17 8 8 1 27 -4 34 -12 20z"/>
<path d="M3994 2586 c-9 -25 1 -109 14 -114 9 -3 12 14 12 62 0 61 -13 87 -26
52z"/>
<path d="M4062 2545 c2 -30 8 -55 13 -55 6 0 11 25 13 55 2 45 0 55 -13 55
-13 0 -15 -10 -13 -55z"/>
<path d="M3930 2530 c0 -57 11 -78 24 -44 14 35 4 104 -15 104 -5 0 -9 -27 -9
-60z"/>
<path d="M3794 2557 c-8 -36 -1 -100 14 -105 9 -3 12 14 12 62 0 65 -14 88
-26 43z"/>
<path d="M3860 2520 c0 -47 3 -60 15 -60 12 0 15 13 15 60 0 47 -3 60 -15 60
-12 0 -15 -13 -15 -60z"/>
<path d="M3730 2511 c0 -59 12 -86 24 -55 3 9 6 38 6 65 0 37 -4 49 -15 49
-12 0 -15 -13 -15 -59z"/>
<path d="M3601 2546 c-16 -18 -10 -108 7 -114 9 -3 12 14 12 62 0 36 -2 66 -4
66 -2 0 -9 -6 -15 -14z"/>
<path d="M3660 2500 c0 -47 3 -60 15 -60 12 0 15 13 15 60 0 47 -3 60 -15 60
-12 0 -15 -13 -15 -60z"/>
<path d="M3537 2543 c-10 -10 -8 -111 2 -117 13 -9 21 19 21 75 0 46 -7 59
-23 42z"/>
<path d="M6400 2543 c-14 -2 -36 -6 -49 -9 l-24 -5 22 -15 c19 -14 21 -24 21
-115 l0 -100 38 7 c20 3 40 9 44 13 3 3 8 46 10 94 2 64 7 90 18 97 8 5 12 12
9 15 -11 10 -63 21 -89 18z"/>
<path d="M3402 2523 c-13 -27 -9 -106 6 -110 9 -4 12 13 12 61 0 69 -3 78 -18
49z"/>
<path d="M3467 2533 c-4 -3 -7 -30 -7 -60 0 -40 4 -53 15 -53 12 0 15 13 15
60 0 55 -6 70 -23 53z"/>
<path d="M6227 2522 l-38 -3 26 -21 c26 -20 27 -23 23 -114 l-3 -94 43 0 42 0
0 93 c0 117 -19 145 -93 139z"/>
<path d="M7357 2523 c-11 -11 -8 -213 3 -213 6 0 10 43 10 110 0 110 -1 116
-13 103z"/>
<path d="M7284 2507 c-10 -28 1 -200 14 -205 9 -3 12 23 12 107 0 70 -4 111
-10 111 -6 0 -13 -6 -16 -13z"/>
<path d="M6067 2503 c-4 -3 2 -12 13 -20 18 -13 20 -26 20 -115 l0 -100 31 6
c17 3 35 6 40 6 5 0 9 44 9 99 0 94 -1 99 -25 115 -24 16 -76 22 -88 9z"/>
<path d="M7166 2503 c-10 -10 -7 -581 3 -587 18 -12 21 31 21 304 0 253 -4
303 -24 283z"/>
<path d="M7225 2497 c-3 -7 -4 -138 -3 -291 2 -213 6 -280 16 -284 9 -3 12 60
12 292 0 197 -3 296 -10 296 -6 0 -13 -6 -15 -13z"/>
<path d="M5951 2493 c-33 -4 -33 -5 -12 -19 19 -14 21 -25 21 -115 l0 -100 43
3 42 3 3 93 c3 89 2 93 -24 117 -15 14 -30 24 -33 23 -3 0 -21 -3 -40 -5z"/>
<path d="M7100 2205 c0 -190 4 -295 10 -295 6 0 10 105 10 295 0 190 -4 295
-10 295 -6 0 -10 -105 -10 -295z"/>
<path d="M6982 2482 c-18 -12 -13 -583 6 -590 9 -3 12 61 12 297 0 166 -1 301
-2 301 -2 0 -9 -4 -16 -8z"/>
<path d="M7035 2477 c-3 -7 -4 -138 -3 -291 2 -213 6 -280 16 -284 9 -3 12 60
12 292 0 197 -3 296 -10 296 -6 0 -13 -6 -15 -13z"/>
<path d="M5798 2474 c-4 -3 2 -14 13 -25 16 -16 19 -34 19 -115 l0 -96 31 6
c17 3 35 6 40 6 5 0 9 43 9 95 0 84 -2 96 -22 115 -20 19 -77 28 -90 14z"/>
<path d="M6917 2473 c-4 -3 -7 -136 -7 -294 0 -260 6 -330 24 -283 9 24 7 584
-2 584 -5 0 -12 -3 -15 -7z"/>
<path d="M5681 2461 l-33 -6 21 -19 c19 -17 21 -30 21 -113 l0 -93 40 0 40 0
0 98 c0 82 -3 102 -17 114 -27 22 -35 25 -72 19z"/>
<path d="M6850 2175 c0 -190 4 -295 10 -295 6 0 10 105 10 295 0 190 -4 295
-10 295 -6 0 -10 -105 -10 -295z"/>
<path d="M6725 2447 c-10 -25 0 -582 10 -582 6 0 11 108 13 298 1 202 -1 297
-8 297 -6 0 -13 -6 -15 -13z"/>
<path d="M6790 2165 c0 -190 4 -295 10 -295 6 0 10 105 10 295 0 190 -4 295
-10 295 -6 0 -10 -105 -10 -295z"/>
<path d="M5526 2441 c-3 -5 1 -14 9 -21 11 -10 15 -36 15 -111 0 -107 -1 -105
59 -93 l31 7 0 89 c0 81 -2 91 -25 113 -24 25 -78 34 -89 16z"/>
<path d="M6667 2444 c-4 -4 -7 -137 -7 -296 0 -227 3 -289 13 -286 9 4 13 72
15 288 2 259 -2 313 -21 294z"/>
<path d="M5407 2432 c-38 -3 -38 -3 -16 -21 20 -16 22 -27 22 -114 l0 -97 43
0 44 0 0 93 c0 117 -19 145 -93 139z"/>
<path d="M6600 2145 c0 -190 4 -295 10 -295 6 0 10 105 10 295 0 190 -4 295
-10 295 -6 0 -10 -105 -10 -295z"/>
<path d="M5252 2413 c-10 -4 -8 -9 7 -20 19 -13 21 -24 21 -114 0 -107 1 -108
58 -93 21 6 22 11 22 100 0 83 -2 95 -22 114 -21 19 -57 25 -86 13z"/>
<path d="M5131 2401 l-33 -6 21 -19 c19 -17 21 -30 21 -119 0 -86 2 -98 16
-93 9 3 27 6 40 6 24 0 24 1 24 98 0 82 -3 102 -17 114 -27 22 -35 25 -72 19z"/>
<path d="M4972 2383 c-10 -4 -8 -9 7 -20 19 -13 21 -24 21 -114 0 -98 0 -99
24 -99 53 0 56 5 56 110 0 93 -1 99 -25 114 -24 16 -57 19 -83 9z"/>
<path d="M4838 2347 c20 -21 22 -34 22 -121 0 -97 0 -98 23 -92 12 3 30 6 40
6 15 0 17 11 17 98 0 116 -10 132 -80 132 l-43 0 21 -23z"/>
<path d="M4697 2353 c-18 -5 -18 -6 2 -19 19 -14 21 -25 21 -115 l0 -100 43 3
42 3 -1 99 c0 92 -2 99 -25 117 -24 18 -46 21 -82 12z"/>
<path d="M4558 2317 c20 -21 22 -34 22 -121 l0 -98 37 7 c21 4 41 9 45 11 4 3
6 45 5 94 -4 110 -17 130 -85 130 l-45 0 21 -23z"/>
<path d="M4420 2321 l-25 -7 23 -12 c21 -12 22 -19 22 -113 l0 -100 42 3 43 3
1 94 c2 89 1 95 -23 117 -27 25 -40 27 -83 15z"/>
<path d="M4223 2295 c2 -5 17 -16 33 -25 28 -16 29 -20 34 -106 l5 -89 38 1
c21 1 40 3 42 6 3 2 6 45 7 95 3 78 0 94 -17 112 -16 19 -28 22 -82 19 -35 -2
-62 -7 -60 -13z"/>
<path d="M4137 2163 c-12 -11 -8 -603 3 -603 6 0 10 108 10 305 0 168 -1 305
-3 305 -2 0 -7 -3 -10 -7z"/>
<path d="M3141 2149 c-35 -4 -68 -12 -73 -17 -11 -11 -11 -763 0 -774 4 -4 37
-5 72 -2 l65 6 -3 117 c-3 97 -1 119 12 130 23 19 23 302 1 345 -21 40 -20
169 1 190 17 18 22 18 -75 5z m21 -684 c4 -51 -5 -65 -39 -65 -21 0 -23 5 -23
48 0 55 4 62 36 62 19 0 22 -6 26 -45z"/>
<path d="M4067 2153 c-4 -3 -7 -31 -7 -60 0 -76 24 -67 28 10 3 52 -4 68 -21
50z"/>
<path d="M7357 2153 c-11 -11 -8 -213 3 -213 6 0 10 43 10 110 0 110 -1 116
-13 103z"/>
<path d="M3937 2143 c-10 -10 -8 -123 2 -123 18 0 29 93 13 118 -5 7 -11 9
-15 5z"/>
<path d="M3994 2136 c-9 -24 1 -99 14 -104 9 -3 12 13 12 57 0 57 -13 81 -26
47z"/>
<path d="M7285 2128 c-11 -42 -1 -191 13 -196 9 -3 12 23 12 107 0 66 -4 111
-10 111 -5 0 -12 -10 -15 -22z"/>
<path d="M3864 2126 c-9 -22 0 -111 11 -111 6 0 11 28 13 63 2 39 -1 62 -8 62
-6 0 -13 -6 -16 -14z"/>
<path d="M3736 2123 c-3 -3 -6 -33 -6 -65 0 -45 3 -58 15 -58 12 0 15 13 15
59 0 56 -9 79 -24 64z"/>
<path d="M3794 2116 c-9 -24 1 -99 14 -104 9 -3 12 13 12 57 0 57 -13 81 -26
47z"/>
<path d="M3664 2106 c-9 -25 1 -109 14 -114 9 -3 12 14 12 62 0 61 -13 87 -26
52z"/>
<path d="M3596 2094 c-14 -37 -4 -114 15 -114 5 0 9 29 9 65 0 62 -11 84 -24
49z"/>
<path d="M3472 2091 c-17 -10 -12 -113 6 -119 9 -3 12 14 12 62 0 36 -1 66 -2
66 -2 0 -9 -4 -16 -9z"/>
<path d="M3530 2039 c0 -81 24 -77 28 4 2 46 0 57 -13 57 -12 0 -15 -13 -15
-61z"/>
<path d="M3407 2082 c-10 -16 -13 -109 -4 -118 14 -14 18 5 15 67 -2 39 -6 59
-11 51z"/>
<path d="M3952 1980 c-82 -12 -76 -23 8 -16 50 5 72 4 65 -2 -5 -6 -23 -12
-40 -15 -26 -3 -24 -4 10 -6 44 -1 38 -17 -10 -24 -26 -3 -24 -4 10 -6 30 -1
36 -4 25 -11 -10 -6 -11 -10 -2 -10 18 0 15 -18 -5 -23 -17 -4 -17 -5 0 -6 27
-2 20 -19 -10 -24 l-28 -4 28 -2 c30 -1 37 -17 10 -24 -17 -4 -17 -5 0 -6 15
-1 17 -8 14 -42 -4 -38 -3 -40 22 -37 l26 3 3 133 3 132 -38 -1 c-21 -1 -62
-5 -91 -9z"/>
<path d="M3545 1934 c-66 -7 -123 -13 -127 -13 -5 -1 -8 -62 -8 -136 l0 -135
43 1 c23 0 100 8 172 17 116 15 130 19 132 37 1 16 1 16 -3 3 -14 -48 -32 6
-25 75 1 9 -3 17 -9 17 -6 0 -9 3 -7 8 3 4 1 16 -4 27 -5 13 -8 -10 -8 -62
l-1 -82 -32 -5 c-95 -15 -107 -13 -111 14 -4 25 -4 25 -6 -2 -1 -21 -6 -28
-21 -28 -17 0 -20 7 -20 45 0 25 5 45 11 45 5 0 7 5 3 12 -5 7 -3 8 5 4 7 -5
16 -18 21 -30 7 -16 8 -10 8 24 -4 119 1 150 22 150 17 0 20 -8 23 -82 l3 -83
2 88 c2 85 3 87 26 87 14 0 28 5 31 10 3 6 5 9 3 9 -2 -1 -57 -7 -123 -15z m3
-60 c1 -46 1 -46 -18 -29 -31 28 -25 70 11 74 4 1 7 -20 7 -45z m-48 21 c0
-13 -4 -14 -20 -5 -11 6 -20 13 -20 15 0 3 9 5 20 5 11 0 20 -7 20 -15z m0
-204 c0 -10 -9 -21 -20 -24 -16 -4 -20 0 -20 19 0 17 6 24 20 24 13 0 20 -7
20 -19z"/>
<path d="M6365 1940 c-33 -4 -123 -15 -200 -24 -77 -8 -259 -29 -405 -46 -146
-16 -308 -35 -360 -41 -52 -5 -106 -12 -120 -14 -14 -2 -52 -6 -85 -10 -33 -3
-91 -10 -130 -15 -104 -13 -331 -39 -405 -45 -36 -3 -81 -8 -100 -10 -19 -3
-71 -7 -115 -10 -45 -3 -95 -13 -115 -23 -35 -17 -35 -18 -38 -89 -3 -72 -3
-73 23 -73 14 0 25 5 25 10 0 6 11 10 25 10 23 0 25 3 25 53 0 57 6 70 33 80
15 6 17 -1 17 -63 0 -76 2 -79 59 -59 29 10 31 14 31 59 0 61 7 80 31 80 17 0
19 -8 19 -71 0 -64 2 -70 18 -64 9 4 29 10 45 13 25 4 27 8 27 51 0 65 9 91
31 91 17 0 19 -8 19 -65 0 -50 4 -67 16 -72 8 -3 20 -1 27 6 6 6 19 11 29 11
15 0 18 8 18 49 0 62 7 81 31 81 17 0 19 -8 19 -65 l0 -66 38 7 c52 9 52 10
52 64 0 61 7 80 31 80 17 0 19 -8 19 -70 0 -54 3 -70 14 -70 8 0 18 5 21 10 3
6 14 10 24 10 15 0 19 11 24 57 4 37 12 62 23 70 27 20 34 6 34 -63 0 -35 3
-64 7 -64 4 0 22 5 40 12 26 10 33 18 33 39 0 47 12 91 27 96 23 9 33 -16 33
-80 0 -54 1 -57 19 -47 11 5 29 10 40 10 19 0 21 6 21 51 0 55 13 89 35 89 10
0 16 -20 21 -70 5 -49 11 -70 20 -70 8 0 14 5 14 10 0 6 11 10 25 10 23 0 25
3 25 49 0 62 7 81 31 81 17 0 19 -8 19 -59 0 -33 4 -62 8 -65 5 -3 25 -1 45 5
36 10 37 11 37 59 0 61 7 80 31 80 17 0 19 -8 19 -70 0 -64 9 -86 25 -60 3 6
17 10 29 10 21 0 24 6 29 57 4 38 12 62 23 70 25 18 34 1 34 -64 0 -28 4 -54
9 -57 4 -3 22 0 40 7 29 11 31 15 31 58 0 60 7 79 31 79 16 0 19 -8 21 -47 2
-81 1 -78 33 -75 51 5 55 9 55 57 0 52 14 85 35 85 12 0 15 -15 15 -64 0 -65
12 -88 33 -67 6 6 19 11 29 11 15 0 18 8 18 46 0 50 14 84 34 84 19 0 26 -23
26 -81 0 -43 3 -50 18 -45 64 17 62 16 62 59 0 61 10 87 31 87 17 0 19 -8 19
-63 0 -35 2 -66 4 -68 3 -2 25 -3 50 -1 l46 4 0 73 c0 57 -3 74 -16 79 -9 3
-19 5 -22 5 -4 -1 -34 -5 -67 -9z"/>
<path d="M3642 1780 c0 -14 2 -19 5 -12 2 6 2 18 0 25 -3 6 -5 1 -5 -13z"/>
<path d="M4067 1673 c-10 -10 -8 -111 2 -117 13 -9 21 19 21 75 0 46 -7 59
-23 42z"/>
<path d="M3994 1656 c-9 -24 1 -99 14 -104 9 -3 12 13 12 57 0 57 -13 81 -26
47z"/>
<path d="M3864 1646 c-9 -25 1 -109 14 -114 9 -3 12 14 12 62 0 61 -13 87 -26
52z"/>
<path d="M3930 1601 c0 -34 4 -61 10 -61 24 0 26 110 3 118 -10 3 -13 -13 -13
-57z"/>
<path d="M3794 1627 c-8 -36 -1 -100 14 -105 9 -3 12 14 12 62 0 65 -14 88
-26 43z"/>
<path d="M3730 1581 c0 -59 12 -86 24 -55 3 9 6 38 6 65 0 37 -4 49 -15 49
-12 0 -15 -13 -15 -59z"/>
<path d="M3601 1616 c-16 -18 -10 -108 7 -114 9 -3 12 14 12 62 0 36 -2 66 -4
66 -2 0 -9 -6 -15 -14z"/>
<path d="M3667 1623 c-4 -3 -7 -30 -7 -60 0 -40 4 -53 15 -53 12 0 15 13 15
60 0 55 -6 70 -23 53z"/>
<path d="M3537 1613 c-4 -3 -7 -33 -7 -65 0 -43 3 -59 13 -56 7 3 13 28 15 66
3 57 -4 73 -21 55z"/>
<path d="M3464 1596 c-9 -25 1 -109 14 -114 9 -3 12 14 12 62 0 61 -13 87 -26
52z"/>
<path d="M3396 1550 c-7 -51 -3 -70 15 -70 5 0 9 27 9 60 0 73 -15 79 -24 10z"/>
<path d="M4178 1483 c7 -3 16 -2 19 1 4 3 -2 6 -13 5 -11 0 -14 -3 -6 -6z"/>
</g>
</svg>
